<mxfile host="app.diagrams.net" modified="2023-09-08T01:58:33.911Z" agent="Mozilla/5.0 (Windows NT 10.0; Win64; x64) AppleWebKit/537.36 (KHTML, like Gecko) Chrome/116.0.0.0 Safari/537.36" etag="-7csU5NnSvlVyetQ-12i" version="21.7.2" type="github">
  <diagram name="第 1 页" id="eSgcURXgfp281Zkvz8gB">
    <mxGraphModel dx="794" dy="432" grid="1" gridSize="10" guides="1" tooltips="1" connect="1" arrows="1" fold="1" page="1" pageScale="1" pageWidth="827" pageHeight="1169" math="0" shadow="0">
      <root>
        <mxCell id="0" />
        <mxCell id="1" parent="0" />
        <mxCell id="UOJW9OT7AzYY-Jgk8sPg-1" value="&lt;font style=&quot;font-size: 18px;&quot;&gt;火灾超前预警平台&lt;/font&gt;" style="rounded=0;whiteSpace=wrap;html=1;fillColor=#fff2cc;strokeColor=#d6b656;" vertex="1" parent="1">
          <mxGeometry x="184" y="30" width="460" height="70" as="geometry" />
        </mxCell>
        <mxCell id="UOJW9OT7AzYY-Jgk8sPg-4" value="" style="edgeStyle=orthogonalEdgeStyle;rounded=0;orthogonalLoop=1;jettySize=auto;html=1;" edge="1" parent="1" source="UOJW9OT7AzYY-Jgk8sPg-2" target="UOJW9OT7AzYY-Jgk8sPg-3">
          <mxGeometry relative="1" as="geometry" />
        </mxCell>
        <mxCell id="UOJW9OT7AzYY-Jgk8sPg-5" value="对应多个" style="edgeLabel;html=1;align=center;verticalAlign=middle;resizable=0;points=[];" vertex="1" connectable="0" parent="UOJW9OT7AzYY-Jgk8sPg-4">
          <mxGeometry x="-0.1289" y="-2" relative="1" as="geometry">
            <mxPoint as="offset" />
          </mxGeometry>
        </mxCell>
        <mxCell id="UOJW9OT7AzYY-Jgk8sPg-2" value="企业" style="rounded=0;whiteSpace=wrap;html=1;" vertex="1" parent="1">
          <mxGeometry x="109" y="240" width="110" height="50" as="geometry" />
        </mxCell>
        <mxCell id="UOJW9OT7AzYY-Jgk8sPg-8" value="" style="edgeStyle=orthogonalEdgeStyle;rounded=0;orthogonalLoop=1;jettySize=auto;html=1;" edge="1" parent="1" source="UOJW9OT7AzYY-Jgk8sPg-3" target="UOJW9OT7AzYY-Jgk8sPg-7">
          <mxGeometry relative="1" as="geometry" />
        </mxCell>
        <mxCell id="UOJW9OT7AzYY-Jgk8sPg-3" value="设备" style="whiteSpace=wrap;html=1;rounded=0;" vertex="1" parent="1">
          <mxGeometry x="389" y="235" width="120" height="60" as="geometry" />
        </mxCell>
        <mxCell id="UOJW9OT7AzYY-Jgk8sPg-6" value="监控" style="rhombus;whiteSpace=wrap;html=1;" vertex="1" parent="1">
          <mxGeometry x="480" y="270" width="60" height="50" as="geometry" />
        </mxCell>
        <mxCell id="UOJW9OT7AzYY-Jgk8sPg-7" value="监测点" style="whiteSpace=wrap;html=1;rounded=0;" vertex="1" parent="1">
          <mxGeometry x="609" y="237.5" width="110" height="55" as="geometry" />
        </mxCell>
        <mxCell id="UOJW9OT7AzYY-Jgk8sPg-10" value="监测报告" style="ellipse;whiteSpace=wrap;html=1;fillColor=#d5e8d4;strokeColor=#82b366;" vertex="1" parent="1">
          <mxGeometry x="240" y="330" width="290" height="50" as="geometry" />
        </mxCell>
        <mxCell id="UOJW9OT7AzYY-Jgk8sPg-11" value="剩余电流故障" style="rounded=0;whiteSpace=wrap;html=1;" vertex="1" parent="1">
          <mxGeometry x="64" y="500" width="120" height="60" as="geometry" />
        </mxCell>
        <mxCell id="UOJW9OT7AzYY-Jgk8sPg-12" value="过流故障" style="rounded=0;whiteSpace=wrap;html=1;" vertex="1" parent="1">
          <mxGeometry x="230" y="500" width="120" height="60" as="geometry" />
        </mxCell>
        <mxCell id="UOJW9OT7AzYY-Jgk8sPg-13" value="" style="shape=image;verticalLabelPosition=bottom;labelBackgroundColor=default;verticalAlign=top;aspect=fixed;imageAspect=0;image=data:image/png,iVBORw0KGgoAAAANSUhEUgAAAuoAAAIlCAYAAACD2d3HAAAgAElEQVR4AeydeVtUx7q3zzc63+I9X+H8uU92tomRGBDFWXEWJeCAI2owzprBIRpnxRFFDcQ4gyBEBCcEBAGH571+lV29FyvdQEM39HDXdS3XVNO6C6t+61lPVf+XESAAAQhAAAIQgAAEIACBlCPwXylXIyoEAQhAAAIQgAAEIAABCBhCnT8CCEAAAhCAAAQgAAEIpCABhHoKNgpVggAEIAABCEAAAhCAAEKdvwEIQAACEIAABCAAAQikIAGEego2ClWCAAQgAAEIQAACEIAAQp2/AQhAAAIQgAAEIAABCKQgAYR6CjYKVYIABCAAAQhAAAIQgABCnb8BCEAAAhCAAAQgAAEIpCABhHoKNgpVggAEIAABCEAAAhCAAEKdvwEIQAACEIAABCAAAQikIAGEego2ClWCAAQgAAEIQAACEIAAQp2/AQhAAAIQgAAEIAABCKQgAYR6CjYKVYIABCAAAQhAAAIQgABCnb8BCEAAAhCAAAQgAAEIpCABhHoKNgpVggAEIAABCEAAAhCAAEKdvwEIQAACEIAABCAAAQikIAGEego2ClWCAAQgAAEIQAACEIAAQp2/AQhAAAIQgAAEIAABCKQgAYR6CjYKVYIABCAAAQhAAAIQgABCnb8BCEAAAhCAAAQgAAEIpCABhHoKNgpVggAEIAABCEAAAhCAAEKdvwEIQAACEIAABCAAAQikIAGEego2ClWCAAQgAAEIQAACEIAAQp2/AQhAAAIQgAAEIAABCKQgAYR6CjYKVYIABCAAAQhAAAIQgABCnb8BCEAAAhCAAAQgAAEIpCABhHoKNgpVggAEIAABCEAAAhCAAEKdvwEIQAACEIAABCAAAQikIAGEego2ClWCAAQgAAEIQAACEIAAQp2/AQhAAAIQgAAEIAABCKQgAYR6CjYKVYIABCAAAQhAAAIQgABCnb8BCEAAAhCAAAQgAAEIpCABhHoKNgpVggAEIAABCEAAAhCAAEKdvwEIQAACEIAABCAAAQikIAGEego2ClWCAAQgAAEIQAACEIAAQp2/AQhAAAIQgAAEIAABCKQgAYR6CjYKVYIABCAAAQhAAAIQgABCnb8BCEAAAhAYMYH6+nrTRoAABCAAgcQTQKgnnik5QgACEMgaAgj1rGlqHhQCEBgHAgj1cYBOkRCAAAQyhQBCPVNakueAAARSkQBCPRVbhTpBAAIQSBMCCPU0aSiqCQEIpCWBtBLq9+/ft//+7/+2//qv/3Lb//zP/9jLly9N1//f//t/bh9PK+zcudMWLlwYTxLiQgACEIBAgABCPQAjAYcaz/73f//XjW3KLnweqwiNZ9p6enrcuKaxUUHnX3zxhV26dClWUq5DAAIpTCDthLrvwNTpqPNpbm42CXYv3v0+LMAV398baq/OjgABCEAAAkMTQKgPzWi4MSSuo41n0cYsjX9elEe7P9g1b+Qabr2IBwEIjB+BtBTqEufqpE6ePPk3S0Es67oX9urYfIhmUfdWCR+HPQQgAAEIxCaAUI/NJp473vIdNhQNZVGXuN+8efOAoryAf/DggRP+XphrHAwbsQYk5AQCEEg5Amkp1A8ePOgE+rRp01ynE8tyIDcZdXIKWNRT7m+PCkEAAhlAAKGe3EYcSqhrPNy0aVPki7FEuYxZEuTe/UXjn+LgApPctiJ3CCSDQFoK9ZKSkiGtAuqg5CbjhXo0eNEs6tHicQ0CEIAABKITQKhH5xLvVQnrWEanWNe9+4uEuMazoCVd97xQ1zgow5W3rMdbN+JDAALjRyAthbp3fVHnNJilPGhRVycWq7MLX+fT4Pj9QVIyBCCQXgQQ6uPfXtHGQT+OaezzAl3CXcde4I9/zakBBCAwFIG0FOrqbNT5aIsVwhZ1xfUdl08T7Zo6vHA8H589BCAAAQgMJIBQH8hjNGfeTz1sPAqfe+E9WFkaA4NW9cHicg8CEEhdAmkt1CWoJbbDnZg/x6Keun941AwCEMgMAgj1xLWjF+oyGMUKYZ/1wcZAPxaG98MR+rHK5zoEIDC2BNJOqEt8+04n2JnFaz3wnwqxno/tHxylQQACmUUAoZ649hyJUE9c6eQEAQikIoG0E+p+HXXBlCVBn/Y0m13HEusS3ursJMSDfni67y3wXpwrviwLQcGve/5+KjYYdYIABCCQSgQQ6olrjdEIdY1b3ogVax8cExNXa3KCAASSSSBthXrw859EuDYfdE9LN/72229u/+eff0ZWgPGC3cf1+6CwjxXHx2UPAQhAAAJ/EUCoJ+4vwQv1WELbX4/muiKhHhwHw7Xy46LKIEAAAulDIG2FehCxd2PxnZj2wQ4raCVXZxV0nwmmCVrWg/lzDAEIQAAC0Qkg1KNzGclVL9QHG4uCRqpgGVjUgzQ4hkDmEEgroZ452HkSCEAAAplBAKGeGe3IU0AAAqlJAKGemu1CrSAAAQikBQGEelo0E5WEAATSlABCPU0bjmpDAAIQSAUCCPVUaAXqAAEIZCoBhHqmtizPBQEIQGAMCCDUxwAyRUAAAllLAKGetU3Pg0MAAhAYPQGE+ugZkgMEIACBWAQQ6rHIcB0CEIAABIYkgFAfEhERIAABCIyYAEJ9xOhICAEIQAACCHX+BiAAAQgkjwBCPXlsyRkCEIBAxhNAqGd8E/OAEIDAOBJAqI8jfIqGAAQgkO4EEOrp3oLUHwIQSGUCCPVUbh3qBgEIQCDFCSDUU7yBqB4EIJDWBBDqad18VB4CEIDA+BJAqI8vf0qHAAQymwBCPbPbl6eDAAQgkFQCCPWk4iVzCEAgywkg1LP8D4DHhwAEIDAaAgj10dAjLQQgAIHBCSDUB+fDXQhAAAIQGIQAQn0QONyCAAQgMEoCCPVRAiQ5BCAAgWwmgFDP5tbn2SEAgWQTSCuh3tHZbQ1NrVbX0BLXpjRKS4AABCAAgcQSQKgnhifjW2I4kgsEMo1AWgl1Ce7e3v6420BplJYAAQhAAAKJJYBQTwxPxrfEcCQXCGQagbQS6rKkjzTEm/b9+/fW/uaNvX7dHnXTPcXxoaGh0W7dqnGnOj5z9py/FXU/VP6dnZ326dOnSFod37v/wF6+euWunTx12rQp6Fpt7e0B8SMJOYAABCCQRAII9cTAjXeMCpY60rQXLl6yU6fPBrNK2HF4HOzu7raDh47Ymzcdwyrj3bt3dvTYcTf+DisBkSCQoQQQ6jEatr7+sU36Os9ypxTYlKnTB2y6pnuKo9DV9db27vvBytZvtKtV12zX7n22eMly+/32H5Y/dYb947MJbluytMh6et65NEo7OTff8vIH5q2yJudOtSXLVkTi+ipWVV23FStLXHnq8LRJpC9avNx0jwABCEBgrAkg1BNDfKRiW6WPJK3GIo0zly5fGfIBqm/cjIxjfjyLtlc8H3S8fuNmf2oPHjy0ZUXFJsEeDDKG+XFy4qRv7Hr1DTeOaixdvLTI9uzd785lCOvr6wsm5RgCWUEAoR6jmSWkZ88tjPo2r45F94Yj1NVRqUNUGn+sIpW2pHTN38R4tHu9vb22tmyDE/UTvsxxLw9f5eSaNr006JoEv+IoLgECEIDAWBFAqCeG9EjEti95JGl/q6m1f/5rYkwBHjQsSXQHz1WuvhrLah4OEtTlW7bZ8qJim1ow0x0r7v4DP7qxKmj40ldhjY3Ku62tzTZsKrf6xw1WXX3TjY/PX7xwX6pLVq2xly9f2sePH8PFcQ6BjCeAUI/RxBLSw7WoKwt1ZEGLukR5UJwHjxVf+Q9qUV9aFLE8SOgr74bGRpen8gpvuqc43mIf47G4DAEIQCChBBDqicE5ErHtS443razaEsfefbK5+U/TpiA3y20V3zth7fOPJtQ1xul6OCif4JdlHV++ctUWLFpqd+/ec2OXBPnhI0cjRizV5f79B1a6usx9nd6wsdzy8guc8Wn6zDmurhL/3r00XCbnEMhkAgj1GK0rIT1r9vyo4liiWPcUx4dYQr1gxhxn7Zble9nylREhrbSxLOrKU4JbVgSV1dfX76wXcqmRFT1okdCxrumerBaKS4AABCAwVgQQ6okhHa/YDpYaT1oJ8UOHf3Hi17uhyL1ErpQKGptmzp5nz579ZwGGeIS6r5fSSMyrPLmG5uZNs9bWNjdGrV6zzu7eu++iyugkoX7ixKmIT/rjxw2uHqqL35qamyPjpy+DPQSygQBCPUYrq3OYVjDLTp85G/GXk2VAm67pnuL4oE5pXuGiyCe/oSzqEuDyy1u/YbNLU7F9h2lij8T21m3bnXV81pz59urVa1+E60i91d7XRXtd851sJDIHEIAABMaAAEI9MZDjEdvhEuNJK/eRs+cqI24rEtIaQyTWFeQjHp5gqvFN7p7aovmm65rEtgxMyl8TRs9XXjAJcgl+WcNXFJc6f3iJdc2r8mObF+o1NbXO9UUCXgYuWd2VzrvRaEwlQCAbCSDUY7R6W9tzq9i+M9JRSIR7Ia6OQ/cUxwd1ZF5Ey7rthbr8xtVRhV1T1Dk+fdriOkx1ml54V174axa+8tPKMsHgff9Ufrg+fBIMkuIYAhAYKwII9cSQjkdsh0scTVqNMzNmzrX5CxZbV1dXOGt3rvFIX4SDc6A0xsmXXGObt8wrsoS3DFn6iqy5U3LxlFFLPvFybTl56oyVrdtoHz58cHl7of7ixUvbsq3CCXyEetRm4GKWEkCoD7Ph/Sor0aJLJGvijBfyfhKNJs94P/Sg64vcU9Q5adMnQW3+3Fsh/Ln3OdekHW9diCbUdS3axJ5o9eUaBCAAgUQRQKgnhuRoxPZI08pg9PPBw1a6aq3b5BKja+FQde36gBVcdF9CXauN7di5x1nLvVjX2CXruvbOhbN0jRPqur9w8TI390u+6j4E4+trspZk1OpmMnD5cVDjIhZ1T4x9thFAqEdpcVkPYn3eC19XXD95RpNjzp2vtO937LYrV6vcRJ3N5dtcx6cORx2NOq7a329H/Mz96i3e7zxn8pQBM+P9ZB+VoyUfveVd1ntvwdc13VMcAgQgAIGxJIBQTwztkYptlT6StBLkGq809jQ1Ndvz5y9s9pxCdy0s1n/6+VDENcY/rbOo37jpfk9EhiJNQJXbS1B4B4W6fjtE7iwyWmllFx8Uv3DhEtu+Y5fNL1xk165Vuy/WiqsJpZqrpfzlFkqAQDYSQKgPs9UHs6gri0eP6py1oLHxiVsrVvHlHuN9x4NC3RcpC4M+J+qToA8S29EsB+Hrvj7qGLXJxQah7imyhwAExooAQj0xpEcitn3J8abt6emx7yp2uAmeWt/ch7r6evc7HrJsK46Cs4QvWurmUGkc85v8z2Xp1nlLyzPTBFAJc53LB10uMbKKyzp+585dW7d+k3N92b13vyvj9u0/XP6KLwu83Ghu/3HHNF9Lwjws1HUNF0/fUuyziQBCfZit7YVxtOhaVko+dRLrCh0dHbZz1x7TslLqqGRpV2cllxj5+ElYK42sCPLJC/7CaViQ+/LC1319NPFmUk6ue0mQRYQAAQhAYCwJINQTQztesR0sNZ60Es05k/Ns4aKlA+ZZ+fw090r3vpj4tWmCpwxJsrTL8BT+ohw+17ikiaQS6v4rscanCV9OcsJbvzaq8U8uNvr9j9Nnzg2wwAd/sVtjZ9GKb10d/MuBXgQIEMg2Agj1Yba43uRjvc3L4tD4pGlATvpxhnv3H7hrco2RiPedjCbsyGqu2fXqtIIh/LPLwXvB48HqE4zHMQQgAIFkEkCoJ4ZuPGI7XGI8aTUOyVAUHnuCeeqet5BrWUQJ9pEG/Xp2be3tAb7vcq2R9b69vd3ednc74a59MGgu16/HT0Z9mQjG4xgCmU4grYR6Q1Or9fbGv0640igtAQIQgAAEEksAoZ4YnoxvieFILhDINAJpJdQ7Orud4Jb1IJ5NHaDSEiAAAQhAILEEEOqJ4cn4lhiO5AKBTCOQVkI90+DzPBCAAATSnQBCPd1bkPpDAAKpTAChnsqtQ90gAAEIpDgBhHqKNxDVgwAE0poAQj2tm4/KQwACEBhfAgj18eVP6RCAQGYTQKhndvvydBCAAASSSgChnlS8ZA4BCGQ5AYR6lv8B8PgQgAAERkMAoT4aeqSFAAQgMDgBhPrgfLgLAQhAAAKDEECoDwKHWxCAAARGSQChPkqAJIcABCCQzQQQ6tnc+jw7BCCQbAII9WQTJn8IQAACGUwAoZ7BjcujQQAC404AoT7uTUAFIAABCKQvAYR6+rYdNYcABFKfAEI99duIGkIAAhBIWQII9ZRtGioGAQhkAAGEegY0Io8AAQhAYLwIINTHizzlQgAC2UAAoZ4NrcwzQgACEEgSAYR6ksCSLQQgAAEzQ6jzZwABCEAAAiMmgFAfMToSQgACEBiSAEJ9SEREgAAEIACBWAQQ6rHIcB0CEIDA6AmklVDv6Oy2hqZWq2toiWtTGqUlQAACEIBAYgkg1BPDk/EtMRzJBQKZRiCthLoEd29vf9xtoDRKS4AABCAAgcQSQKgnhifjW2I4kgsEMo1AWgl1WdJHGkaTVmWePHXabbHKb2hotFu3atxtHZ85ey5W1KjXe3re2bbvttufT59GvR++OFR9wvE5hwAEIJAMAgj1xFAdzRgVb9o3bzqsq+tt1IqHx69Pnz5ZR0fngLi9vb22/8CP9vDhowHXgyfhfLq7u+3goSOmsocT3r17Z0ePHbfXr9uHE504EMhYAgj1YTatOhht0YI6vL37frCy9RvtatU127V7ny1estx+v/2H5U+dYf/4bILbliwtMglydTwFM+ZYXv50+2Li13bj5i07dPgX+9cXk9y1KVOn29qyDabO0Ifa32+brvvtq5xc0+bPZ82Zb41Pmnx09hCAAATGhABCPTGY4xXbwVLjSSvhrfFmWVGxSTyHQ/WNm7Z+4+bI5ba25zZ7TqEd+OFne/as1Y1xGudWr11nS5evjJzLUNXX1xdJF87nwYOHUcvUeOjHyYmTvrHr1TcieS5eWmR79u535+H8IwVxAIEMJ4BQj9HADx/VRToLdUoS4V6I61yb4igMJtTV4XlxHj5WByVB/vPBwza/cJGzNHz48MFZ1tWRqkP1QZ2eF/q6FnxxUP4lpWusvv6xj84eAhCAwJgQQKgnBnM8YjtcYrxp379/b+Vbtln5lu/cWPLXsc632fKiYptaMNMdyyquoDGubN1GJ9YVR2NRbt4027R567/z2Wa79+yzt93d7styOB99YZYFfsKXORHjkoxM+jKscVD5tbW12YZN5Vb/uMGqq2+6Me35ixcuv5JVa+zly5f28ePH8KNzDoGMJ4BQj9HEEtXqsHwHNq9wkWnz57oXtDpISHshL4u67qkDCovzoGh/9KjOSleXWXHJapucm+86sMm5U+2f/5pouVMK7PsduyO1w6IeQcEBBCCQQgQQ6olpjHjFdrDUkaTt6Oiwp09b7PbtP+zylasRw5T/Iixj1KtXr12coEumrOoLFy8zjV8a4zQW1tXXR6rT3PynyyuYj/JfsGip3b17z6WRID985GjEiCWhfv/+Azce6uv0ho3llpdf4AxZ02fOcUJeY693L40UxgEEsoAAQj1GI0tgS3z7ELRg61r4s14soe5dXCS8ly1fGemYlL86qnPnK52VQH576vT8dr7ywoAXAd/5eWt+NAu/4hAgAAEIjCUBhHpiaI9EbPuS40krsSvRW7F9p8mtRSK7dNXaiBtMcGzTV91Ll6/aN3lTTWNSQ2OjzZw9z06fOWcvX72ymtrfnWuKDEwS7sHg81EeEt+ywLe2tllfX7+tXrPO7t6776JrzJNQP3HiVMQn/fHjBveFWF+J/dbU3OzGz2AZHEMgGwgg1GO08kiEure4e2u7OqDBLOr3Hzx0Vnh95vO+5n6fM3nKAKGuFwVvsZdYDwt1ncfyoY/xiFyGAAQgMGoCCPVRI3QZxCO2wyXGk1YGncoLl6xw4RIngr2Q3rKtwuR66QV2sAylqdi+w86ePR/5quy/LstN88efDjq3FbnUyD1FhicJewlyWeAVd0VxqV26fMWJ9UWLlztrvcrwQr2mptblIQEvA5es7r4MP6YG68QxBLKFAEI9RkuPRKh7IR10fZEPujoqWSJ0P+j6opn069ZvcpNJvaXc730evnoIdU+CPQQgkEoEEOqJaY14xHa4xHjThuc1dXV12foNm92qY9GEugR4+5s3bvySeNbCBXLNlEtmeAUyCe9pBbOc+6YWTJBbp6ziv9XUOteWk6fOOH93vRQoeKH+4sVL08uCBD5CPdzCnGczAYR6jNaXUPertcTaK46CPiXqjT9oUddkHE2eUSelziqa64s6y+8qdtip02ed5UATc4pWfGuby/+a1BNc4jHs+rJx0xbbVL414lcoSwWuLzEak8sQgEDSCCDUE4M2XrEdLDXetGGhHsyr6tr1AV9zde9RXb2bSyVR7Rcu8MassFuoF97aB8vRCjPybZ/0dZ7zVfdlBuNv3bbdub+sWFniDFy6py3sCurTsodANhBAqA+zlcOdUTCZF9He51yWhitXq5ylQaJbnxbV2ahjU8elY81il0iXv5+s7vp0qDVjZVF48qTJ7t1/4Pz6lFZBk3G0zrqs8rJ4qD4S9e3t7W7TMllhH8FgHTmGAAQgkAwCCPXEUI1XbAdLjTft27dvTWJYAlxB1u0tWyucC6ZWZtH4Egyygsv1RV+BlU7+6WGhrpVh5H+u8U0+59oHhbqs8nJnkdFKK7v4oHhyw9m+Y5db/ezatWrnP6+4mlCqsVJW/KDhyqdlD4FsIIBQH2YrDybUlYVEsqwFjY1P3Fqxiq/JOr7DU2cUFOr6zKiJPHKLUYdUWXnRxVX6Cxcv2a7de93SV7qvz5IS4pox7ztHCXitvy7rh9KfO3/BVhaXRiYEDfOxiAYBCEBgVAQQ6qPCF0kcr9iOJDSzeNL6pRk1QVSb/NUlsLW0osapzs7OAUsD657EslxXNAZpnJEA92ORHxv9XnnIB13unhq/JOzv3Lnr3Dy1ytnuvftNk0+12oyC4kvYa67W7T/uuBcCCfOwUNc1Vn0JtjrH2UIAoT7MlvadULToWlZKPnXeoq1lr3bu2mNaVkodlSzt6qzkHqMfMQqK9hMnT7vZ7uqAZsyc6ywHivfL0WN28dJlc/dPnrY1a9ebOljVQ/mq09KmJa+2VXxv/f397lw/FkGAAAQgMFYEEOqJIR2P2A6XGE9a+ZTra6xcUbSSSvG3q9z65uE1zrWggcYhfeHVD/hpsueMWXOdoFb5QaHuly/W115NJJVQ9wsjTMrJtQlfTnLCW782qsmmmoCq8rR6jBfq2ntfeB1r7FQ9Va7OtekFgQCBbCOAUB9mi0tIx3qbV4cX/lVQ/TiD3FcU5BojEe87GVku9BlPlgpZxtVxafMuNFouSx2WD7rnz7VvaXlm165Xu03H/p7ieVcZn5Y9BCAAgWQSQKgnhm48YjtcYjxpg+NJMB+NI5ow6kWxBLfiSlw/fPjImpqa3a+G+jFG45jGsJ6eHueOWVt7e8Avk/q85Sajez6drutY45xcN5WPhLv2waC8fz1+0n15Dl7nGALZRiCthHpDU6v19vbH3UZKo7QECEAAAhBILAGEemJ4Mr4lhiO5QCDTCKSVUO/o7HaCW9aDeDZ1gEpLgAAEIACBxBJAqCeGJ+NbYjiSCwQyjUBaCfVMg8/zQAACEEh3Agj1dG9B6g8BCKQyAYR6KrcOdYMABCCQ4gQQ6ineQFQPAhBIawII9bRuPioPAQhAYHwJINTHlz+lQwACmU0AoZ7Z7cvTQQACEEgqAYR6UvGSOQQgkOUEEOpZ/gfA40MAAhAYDQGE+mjokRYCEIDA4AQQ6oPz4S4EIAABCAxCAKE+CBxuQQACEBglAYT6KAGSHAIQgEA2E0CoZ3Pr8+wQgECyCSDUk02Y/CEAAQhkMAGEegY3Lo8GAQiMOwGE+rg3ARWAAAQgkL4EEOrp23bUHAIQSH0CCPXUbyNqCAEIQCBlCSDUU7ZpqBgEIJABBBDqGdCIPAIEIACB8SKAUB8v8pQLAQhkAwGEeja0Ms8IAQhAIEkEEOpJAku2EIAABMwMoc6fAQQgAAEIjJgAQn3E6EgIAQhAYEgCCPUhEREBAhCAAARiEUCoxyLDdQhAAAKjJ5BWQr2js9samlqtrqElrk1plJYAAQhAAAKJJYBQTwxPxrfEcCQXCGQagbQS6hLcvb39cbeB0igtAQIQgAAEEksAoZ4YnoxvieFILhDINAJpJdRlSR9pGGnal69eWdm6jdbW9jxm0R8/frQ3bzrs9et2t/X1/fUy0draZsuLiq25+c+Yaf2Nnp53tu277fbn06f+0qD7k6dOmzYCBCAAgfEkgFBPDP2RjlEqPd60Gq+6ut5GrXhDQ6OdOXsu6r14Lobz6e7utoOHjrixcjj5vHv3zo4eO+7G1OHEJw4EMpUAQn2Qln3//r2Vb9lmn0/4yvLyp9uUqf/ZgiJZAn1awSzLnVJgE77MseobN01pt2ytsMIFS2zT5q3u3Bel+AUz5rg8v5j4td24ecsOHf7F/vXFpEg5a8s2WG9vr09itb/fHlD+Vzm5ps3Xadac+db4pCkSnwMIQAACY0EAoZ4YyvGK7WCp8aT99OmTG2+WFRWbxHM4aPxav3HzgMu69o/PJgy5KZ4P4XwePHho0crUeJg/dYbLe+Kkb+x69Q27WnXNbYuXFtmevfvd8a1bNdbX1+ezZw+BrCGAUI/R1LE6s6qq6zZ7TqE9f/4iklIdzZKlRdbW1mYbNpVbU1NzpCPUvW9LVrtz5amga+oItZcg//ngYZtfuMhZGj58+OAs6xLuPr7SqNNTGbK8K8gyoU1B10pK11h9/WN3zj8QgAAExooAQj0xpOMR2+ES403rjVDlW75z44gMUn7TV+CpBTPduaziCuHxR9dkdff3g/WRoFZewXwUd/+BH50hyxuXtJfBKzx+1j9usOrqm+m/p6gAACAASURBVG5Me/7ihSm/klVr7OXLl6av1wQIZBsBhHqUFlcnpk5FlvTiktWRDmz9hs2mN34JZt+pqRPxHc29+w+cUJeAlvD2Yr69vd1kGVCeytsL9UeP6qx0dZkrY3JuvrOOT86dav/810Rnnf9+x+5I7bCoR1BwAAEIpBABhHpiGiNesR0sdSRpOzo67OnTFrt9+w+7fOVqxIq9a/c+W7xkuTt/9eq1KyaaUJexSdfDQa6esogH81H+CxYttbt377nxTwatw0eOOiOTHz/v33/gxsO9+36wDRvLLS+/wBmyps+cExlzNd4SIJBtBBDqUVpcAnpFcalzQ6mpqXUdizqTaJus2b6jkUCXZVtp1SkFLQfTps+yGbPm2q/HT7j46uTUUZ07X+msBEEfd+V3vvLCgM+PvvPznwTL1m80bf5c++H4wkd5XC5BAAIQGDEBhPqI0Q1IOBKx7TOIJ623eFds3+nmXtXV11vpqrURNxiJ72iuL8Evuio3llD3dfL56MuwxHdu3jTTvC3N4Vq9Zp3dvXffRfXj54kTpyI+6Y8fN7gvxPpK7Lem5ubIF2VfBnsIZAMBhHqMVlbnMXtuoclKLkHtLeh+r2t+0qjvaCTqi79dZepQ9ElQloorV6qcMG9obDRZJ/TpTvHVyd1/8NCJbX3mC4p6HedMnjKgs9RLQFCYh4W6zr0rTIxH4jIEIACBhBNAqCcGaTxiO1xiPGll0Km8cMkKFy5xItgL6S3bKkyul15gB8vQNY2H2mL5qnsh7xdXkLFJgvzZs1Y3fsqAdenyFSfWFy1e7sZDlREcP2Vpl4DXHC4d+/FWbjThl4dg/TiGQCYTQKjHaF11HnPmLXCf6uT+ErSsqwNatbrMdWpK7jsa+aivW7/J9u3/wb6r2GH6lKdPeOr8KrbvsAsXL7nSvFDv6Oh08TWZNGgZ17E+GwY7JoR6jIbiMgQgMK4EEOqJwR+P2A6XGG/a8Lymrq4uk2unVh2LJdSXLV85YIEDZ1GvvmkyQgUnpWp884sraBEGuXXKKv5bTa1zbTl56oxbSU3jooIfP1+8eGl6WdD4ilAPtzDn2UwAoR6j9X3n8bSl5W8TNauuXR8gon1c7dV56ROexL3SaiLpw0d1tmTZiohrio+nzlKC/tTps85yoNVhilZ8a5vL/5rYE1wiK+z6snHTFttUvjUi8GWpwPUlRmNyGQIQSBoBhHpi0MYrtoOlxps2LNSDeYXHN92Ldk1jnRZX2LFzj3P39GI9OB4Gy9H9hYuX2aSv85wBzJcZjL9123bn/rJiZYmzxOuetrArqE/LHgLZQAChHqOVZSXQ5za95fsVVWQJ0Ge/nMl5dvrMOdNyU1ouSh2JPiPKai5LgCbMyDqhT3jyA5R1XLPWg64yOpdInzl7npsw8+NPB10HJYvCkydNzuVGfn1+5RdNxtE663JxkcVDFnaJek1U1bZ0+UqTbz0BAhCAwFgSQKgnhna8YjtYarxp3759axLDj+rqXTaybms5YbldaonhsBvlTz8fcsskBst0FvV/L0UsF5VtFd9HXDvlBqNxMSjUtZCC3Fm0jLFWdvHBj5/bd+xyizBcu1btxk3F1YRSjZXKP2i48mnZQyAbCCDUY7Tyr8dPuo6np6cnItSDUdvfvHEz4zU5Rh2NOiZ1MBL4EteaTa+06gD1g0myePug+BLy+hEl+e+pQ6qsvOg6x8bGJ85FZtfuvW79dd3XZ0kJcfcC8O+Z9ipDLjOydCj9ufMXbGVx6YBPkL489hCAAASSRQChnhiy8YrtYKnxpPVLM36TN9W0yV9dRqS33d1uLOvs7IwYiFSGs4QvWurGJY1dfpP/uSzdOm9peWaaACphrnP5oGss1PilF4I7d+46N0+tcrZ7737T6maaw6Wg+Bo/NVfr9h93nMFLwjws1HWNVV+Crc5xthBAqEdpaQloTZr5y2Le797oNblTlnV1FmvWrndv+lpyUZ2Y72i0ly+elnCMNuFG13Vf8WSNUKd24uRp5yqjDmjGzLkuf1nyfzl6zC5euvzX/ZOnXZnqYGXp0HJVqoc2rS4jS0Z/f787149FECAAAQiMFQGEemJIxyO2wyXGk1Zrl+trrMYuLXygBRBkRdcWXNRAY57GIfmW67dD9HU42rgWvKbxSSuYSaj7vCbl5NqELyc54a1fG9VkU/1OiMrTl+ng+KkxTkYwXZPIVz2D88M0ZhIgkG0EEOpRWlzuLHIj8W4nsjao4whu6kzUqSjIEqGOR/vhBMXTZzzlqzLUcWnzfuhaLsvnrfx0z59rL+vFtevVbtOxv6d4vs7DqQdxIAABCIyWAEJ9tAT/Sh+P2A6XGE/a4HgSzEfjiBfJGuskuBVXYl5ieaTh5atXVlt7e8DYpHFK45zcNmONnxof9WVbhjMCBLKZQFoJ9YamVuvt7Y+7vZRGaQkQgAAEIJBYAgj1xPBkfEsMR3KBQKYRSCuh3tHZ7QS3rAfxbOoAlZYAAQhAAAKJJYBQTwxPxrfEcCQXCGQagbQS6pkGn+eBAAQgkO4EEOrp3oLUHwIQSGUCCPVUbh3qBgEIQCDFCSDUU7yBqB4EIJDWBBDqad18VB4CEIDA+BJAqI8vf0qHAAQymwBCPbPbl6eDAAQgkFQCCPWk4iVzCEAgywkg1LP8D4DHhwAEIDAaAgj10dAjLQQgAIHBCSDUB+fDXQhAAAIQGIQAQn0QONyCAAQgMEoCCPVRAiQ5BCAAgWwmgFDP5tbn2SEAgWQTQKgnmzD5QwACEMhgAgj1DG5cHg0CEBh3Agj1cW8CKgABCEAgfQkg1NO37ag5BCCQ+gQQ6qnfRtQQAhCAQMoSQKinbNNQMQhAIAMIINQzoBF5BAhAAALjRQChPl7kKRcCEMgGAgj1bGhlnhECEIBAkggg1JMElmwhAAEImBlCnT8DCEAAAhAYMQGE+ojRkRACEIDAkAQQ6kMiIgIEIAABCMQigFCPRYbrEIAABEZPIK2EekdntzU0tVpdQ0tcm9IoLQECEIAABBJLAKGeGJ6Mb4nhSC4QyDQCaSXUJbh7e/vjbgOlUVoCBCAAAQgklgBCPTE8Gd8Sw5FcIJBpBNJKqMuSPtIQb9oPHz7Y3n0HrKm5eUCRb9502NqyDaZ9rNDX12+/Hj9pbW3PY0UxxXn9uj3m1tnZaZ8+fXLpP3786Mrz8ZVWobW1zZYXFVtz858xy+EGBCAAgWQSQKgnhm68Y1Sw1HjSalx59qzVNK7oWGONH1v8XuOb7scKjx832MFDRyJjVLR4Z86es4aGRpeP8vN5+/3b7oFfuS9evOzGzFu3alw65Xnnzl07d/5CtOy5BoGsIYBQj9HUd+/es4mTvrHcKQW2aPHyiDBXJ7NkaZHrdGIktZ6ed1ZSusbq6x/HimLVN27ahC9zbMrU6X/bJudOtSXLVrh8lIHKnFYwy9VFaZT2/fv3tmVrhRUuWGKbNm915zEL4wYEIACBJBFAqCcGbDxiO1xiPGm7urps1eoyW712nT1/8cJWFpda2fqNVr5lm9s2bCp344rGHR9kDLpadS2yHT123ApmzDGJ8eD1V69e+yS2fuNmN1YFxy8/3uVMnuLuK7LEvMYw5Veyao3NK1zkDFC79+63woVLrLhkdaRuikuAQLYRQKhHafHu7m7XeVVdu27V1TetdNVaa29vd5Z0CffPJ3zlRLMs6729vS4HWRf+8dmEmJtEf1C4S2yrI2t/88bevXvn8pB1o6mp2e7df+CEvgS/gn85aGtrM3WiinPo8C+2rKjY3fu2ZLU79xZ4l4h/IAABCIwBAYR6YiDHI7bDJcabVoaenw8ettNnzjrRrr0X3JUXLtmKlSVubPHlaHyTmFecU6fPmuL4+MFzCXVturd4yXLbtXufXbtW/Tfj1oWLl+ynnw+57FUXvSTIAOZfFrZVfO8E+px5C5yRTOXrKzUBAtlIAKEepdWP/XrC/vXFJMvLn25f5eS6TcJYHVVNTa0tWLTU7XXuxbQ6Em0KYYu6hPbsuYV/E+oS+lu2VdjefT+4T4gS4LImXLp8JapQl4CXUFc58wsX2fPnL1x5eolYvLTI9h/4Ect6lPbkEgQgkDwCCPXEsI1XbAdLjSetXEuqqq67MUdjlazrwxHqO3ftsevVNyIC3At1L8h1r6vrrbOQS3BPLZjpLOMHfvjJiXCNV7Kcy6o+cdJku3Klyj3CL0ePuTF1c/lfFn1Zzb+r2GGPHtXZw0d1zrovY5kMaAQIZCMBhHqUVn/79q2Vrdto9Y8bnIiW9Vv+6rKA65re/LXXeVCoS3BLlMv/r2jFt07M67yhsdFmzZ7/N6Gu9Op85Gd+8dJl14kd+eWYiyfXGZ+3t6hLoOv6iuJS17H5z4jaT5s+y2bMmmu/Hj8R5Ym4BAEIQCA5BBDqieEaj9gOlxhP2qdPW2zu/IX2/Y7d1tHRMSzXF409wxXqvm4a3zR2avyS+6jGwactLW7el64F52Fp3FIZssD/+NNBK11d5vayqCutxs81a9e7eVk+f/YQyBYCCPUoLS2BLL89+cvNmjPfCenhCHVZw2VJkNU7L7/Apde5LO9ymYnm+qLiZTmYnJvvXgAk3BUvmlCXNb/421Wuo5PV4fbtP5xVwr8M6JPjYBOAojwqlyAAAQiMigBCfVT4IonjEduRRP8+iDetxhn5l/f39w9rMqlEtDYFCXAZl7ybiiznEuThoHgyKkl450+baf/810TT/CsZluSjvmz5yojraDCt/OGVRpv86RU0rumLs3cTDcbnGAKZTgChHqWFJdS9m0vF9p12vvKC7dv/w5A+6r4jU/rgZFIJ6WiuL+rIFLQ6jCaLanKP/PViCXX5qK9bv8nVRZ8G78sVZmO5aYWaiu07TH5/BAhAAAJjSQChnhja8YrtYKnxppXgfVRX78YaL7jDe7nI+BAU6lqtRWNacPMrkSn+5StX7Zu8qW6+lqz2T540OSOUrORy61SQv7lcNRVUTrjsWOfBOrnE/AOBLCCAUI/SyBLa8ttT5yTfOH2O8yJcnZNcXxobn7iOzifXfYl7+e1poo0+LeqazuX/JyEetKifPHXGWSYkzOW3pxnu8vVT2lhCXWVL3J84ccpNtNFnRE0klR+fVolhmUbfGuwhAIGxIoBQTwzpeMV2sNR40969d9+NIRLOq9esc8YouW7KKKW9Nj/mqRwdb/9+p8kVRYspaP6Wd72UdXxSTq5zbVHcjo5Ot0iCxirv+qIxs7b2tlsAQePVwsXLnIXcP4PE/+49+2IKdt0LL+fo07KHQKYTQKhHaWGtxKKO5PCRozGFutxQJMz7+vpcDkGrQNj1RdYBWeZl9b5z956Lv2fvfpM/uiapyp9dLwdaElIdoSblyC/v2vVq08RWCXQtU6X0WsJK8dZv2GzqbJWvXiTkphO0akR5LC5BAAIQSDgBhHpikMYrtoOlxptWwltjkIS0F9S6pnPt/ebLUBytgiaXGY01Wp5R7igyWMl/XGNZeNUxn683bsk1U+OdFmpQ/GCQv7oWV5Cgj7bpnuIQIJCNBBDqUVpdlml1DC0tzyKTSeUvJwGvCTES0xLQEtP6rBcOEt3yzZOQ9kGdmIS9OkJ1dkuXr3QCW3n51VvkwrKpfKsT5LKuS4zL8u47Oi1zpfKVlyYE9fT0OLcXTXz1nxR9eewhAAEIjAUBhHpiKMcrtoOlxpNWBh2J7drfbw9LqGtxBfmka+xR0Lij9PI719wrWcrDIl3xwkJdPuay3iuN7ikfHxqfNLmVzLR6WVio65pWOVMcAgSykQBCPUqry9db1gZZy8+dr3SdlES2JpZOnznHdTKybstlRUI6HNRp6TOhlnb0nwfVOWmC6Z9Pn9pvNbXOzUUz7sOf8+QKowk+elHImZznXgS8UNdebjFakz3amu3htdrD9eIcAhCAQKIJINQTQzQesR0uMZ60Mi7JECQfcbmt6Ef0tNd45fd+WWKJeVnSNfFTxiDNicrNm2bzFyy24ydOuZVY5Pai+8pPVvMXL1665RW1EpmMVRq3dKx4sqhLoGsFGY2lWkhBQeOa1m7XimmKH9x0TfeCrqPh5+ccAplMAKEepXUlpltb29wdrQsr67UEdDh4X7zwdZ3rs2D4Z5O9a4o6Kv0E82BBHZU6MYl+iXl1cGFRP1h67kEAAhAYCwII9cRQjkdsh0uMJ63GMo0v+vIbFMTRjjVm1dXX24MHD+3S5avOCq90waCx7llrq3PZVB4ycMkVVMJa9zRuyZVGIj4YlEZflxU0zsrl06/NHt77NdqD6TmGQLYQSCuh3tDUar29/XG3jdIoLQECEIAABBJLAKGeGJ6Mb4nhSC4QyDQCaSXUOzq7neCW9SCeTR2g0hIgAAEIQCCxBBDqieHJ+JYYjuQCgUwjkFZCPdPg8zwQgAAE0p0AQj3dW5D6QwACqUwAoZ7KrUPdIAABCKQ4AYR6ijcQ1YMABNKaAEI9rZuPykMAAhAYXwII9fHlT+kQgEBmE0CoZ3b78nQQgAAEkkoAoZ5UvGQOAQhkOQGEepb/AfD4EIAABEZDAKE+GnqkhQAEIDA4AYT64Hy4CwEIQAACgxBAqA8Ch1sQgAAERkkAoT5KgCSHAAQgkM0EEOrZ3Po8OwQgkGwCCPVkEyZ/CEAAAhlMAKGewY3Lo0EAAuNOAKE+7k1ABSAAAQikLwGEevq2HTWHAARSnwBCPfXbiBpCAAIQSFkCCPWUbRoqBgEIZAABhHoGNCKPAAEIQGC8CCDUx4s85UIAAtlAAKGeDa3MM0IAAhBIEgGEepLAki0EIAABM0Oo82cAAQhAAAIjJoBQHzE6EkIAAhAYkgBCfUhERIAABCAAgVgEEOqxyHAdAhCAwOgJpJVQ7+jstoamVqtraIlrUxqlJUAAAhCAQGIJINQTw5PxLTEcyQUCmUYgrYS6BHdvb3/cbaA0SkuAAAQgAIHEEkCoJ4Yn41tiOJILBDKNQFoJdVnSRxriTdve3m6PHzfEXdz9+w9s0+at1tPTM2jaT58+2anTZ62hoTES78OHD3a+8oI1N/8ZuRbr4NatGtM23NDT8862fbfd/nz6dFhJTp46bdoIEIAABAYjgFAfjM7w78U7RgVzHk1ajUWdnZ327Nl/jFl9fX328FGdaUwKh/fv39svR391m46HCn19/fbr8ZPW1vY8alSV39HROeBeb2+v7T/woz18+GjA9eCJxs4zZ89FLnV3d9vBQ0fszZuOyLXBDt69e2dHjx2316/bB4vGPQiMOwGEeowmqKq6brl50+zRozoXQx3AVzm5NmXqdMuZPMXWb9z8t5TPn7+wghlzbMKXOS6e4vpt1pz51vikKZLm7du3tqK4NCLK33Z3uw5jW8X3tmv3Xnfc/uaNxeoIVR9t0YI6HtUjL3+6fTHxa7tx85YdOvyL/euLSe6a6rS2bIOpM/Sh9vfbkbrqvp7VP6/Ow/X36dhDAALZTQChnpj2H43Yjjft9zt2W+6UAvvs8y9dPz97bqH9fPCwyaAjgd7a2ubGOJ0Hw8ePH128wgVLTJvGFQntwYLyKCldY/X1j6NGk4CfPafQDvzws3tZuFp1zbStXrvOli5f6Y51LsOUXiB8qL5xc8A4/ODBQ1tWVGwS7MGg8TB/6gz7x2cTbOKkb+x69Y1InouXFtmevfvdeTj/YB4cQ2A8CSDUY9BX56NOaH7hIuvqems//XwoIozDHYSykDVi1uz5ThhL5Ktz0Cahv3DRUluxsiTSgUgUS+x7Qb9o8XJbtnyl60jUmfhNnUqszm0ooa4XCZUvQa4OWM8hS4MsJLKshztYPdOSpUWuo9bzBPMfqqONgZDLEIBAFhBAqCemkeMV28FSR5pW/X7Q4KO+XmNH/eOGvwl1iWQJ/PkLFtvLV6/cpmNdCwpo1Ut5+nEs2j48tmmMLVu30Yn18i3b3FgkQ5m+Tutc2+49+0wGLQlqnS8vKrapBTPdsSzrssD7MdUbyPRVWOOgxra2tjbbsKncPVt19U338vD8xQuXX8mqNfby5UvTiwgBAqlGAKE+SIvImq2OoaOjw4nt32pqXWx1FNOmz3KuK3JTkaVc1gmJ35ra313nIeuAOo6vv8m3Y7+e+FsHoI5Mnc29+w+ceNaLQWXlRWtobDQJfXWgPih/WbR95xPN4h20eqtjUmerl4TS1WVWXLLaJufmu/STc6faP/810dVXHawPWNQ9CfYQgEA8BBDq8dCKHXekYls5xpM22NfLYBT8cqoxLCzUJV5ra2+7Ma9oxbfOfVJjjLampmZbvGS5u3f79h8R6/pghh6lkwXfG6GePm0Z4JIpo9fCxcvc+KW4EuR19fURcBpzZWHftXufK1vHl69ctQWLltrdu/dcvSTIDx856gxPykNCXW6pGg/37vvBNmwst7z8AmfImj5zjruv8VhjOwECqUYAoR6lRfQW7oWvOgi96e/YuSfihiLftosXL1vF9h3OdUWC/sWLl87P78rVKtd5fD7hK/dZUZZ0CXwJfh9kfShdtdZ+OXrMvdXLiiFRrc9/6qTkQjOvcJHrdJRG+csNRh2O31avWec6Kn+uvXeV0bE6W3VU585XupcEWdODceULrzg++M5PnZ62svUb3ebPtR+O77zPjz0EIJAdBBDqiWnneMR2uMR40spnXMafiu077dLlK7Z33wE3Fty9d98ZisJC/cTJ01YwY7ZdvHTZGay8ochbr/XFWPcUR3EVJNQliDXmaEyTwK+pqXXnMkbp67OEugxUly5ftW/yprr5Wbo3c/Y8O33mnLPYy/Al1xQZmLwbqn92/2VbeagsWeDlsqPn0/io51FQHSTUT5w4FfFJ1/wzlR/cmpqbI1+UfRnsIZAKBBDqUVpBwjnYmahDk7+3Oqjg5idbqpPyPt1yNVHnInEtXzkJ96KVJe6TnMS7/OMkeCXE1UHOnb/QdZZLlq1wwludjJ/kojgS7eGg+qnjUb7hT46K64X6/QcPndjWZ75gvXUc9rNXxypx7oV5WKjrXHEIEIAABIIEEOpBGiM/jkdsh0uJJ60mYao/X1lc6gxOGoc0/sgiLeEaFuqyqIddQjQWBA09qk8wnu5r/JKVWtZtWa/lXqJzla0v0CrLB42JMnydPXvexVE8v8nK/+NPB10+GldVjgxPMjZJkOtFQHE150svHhLrcid99eq1y94Ldb0oqC4S8JrDpWNfhqz24efxdWMPgfEmgFCP0QL6z+0/zz150mRz5i1wbiq6ro5Ak1DUKShIXN+5e+9v7ilBcayO42lLixPwmjwj8a+OSx2YOgvNPldHo7KUrwT/ufMXnFUhXEV93lNHJwuGjsPBC3XNpF+3fpObTOoFuN/rs2GwY0KohylyDgEIDIcAQn04lIaOE4/YDucWT1oZkLTimIS6LOAS6honHtXVO8t0WKhLFGv8Co5nMkx5i7q/rjiKq6DxRJuCDEvByaTBsdVFCHw1VlyNh7L4yzVTbjoyiHmjmOIr/bSCWW4MlAFNbp0S/fpyLdeWk6fOuK/gfsUaxZdhS1+9t2yrcAIfoe7Js08HAgj1GK0U7kzU6agD0Ru9/OHUyalT8UEdhTojfy3YUfmOQvtgCKdRZ7RqdZmbuR5NgCutOllNPNWnPlkUYs1yV2erunxXscN1yqq7JuboE+Tm8r+sFcGlrcKuLxs3bbFN5VsjFna9POD6Emw9jiEAARFAqCfm7yAesR0uMZ608jeXlVqrqsg/W2OOBKwEtwxGYaGur7by3dYYIIu3jD2yiss3XV+MZVDSNcXxX3g1/imOrldeuOS+HOuazk+fOeuEdtCirpcEzaXSGOlFverhJ7sqrQ/B8VRjnI+vsVG+7ZO+zhtgwArG37pt+19GsZUlzhKve9rCrqC+LPYQSAUCCPUYraD/vLKoy43l7LlK538uUaxNM83lGhMM6nSCb+n67Oc//anDkt+d8lSQ4JVfnsSwlk+UVUDpNWlVfuqypoc/NSqdXhIkuCXU1SmpU1Tn5l8gfH1Ujqz1EukqV/np06E6YXXIstprEqvEvvz7FPTyodVgVFffOUrUaz15bVomK+wj6MtjDwEIZC8BhHpi2j4esR0uMd60Gku2bK1wY5TGnBmz5jqLupbslSVb45s39viytMiBVnnReCDhrPtyO9GXXa2T7scSxZdo17ikLez6omv6oixXF32JVpAVXOf6Cqx5XVpVJizUtTKMvl5rfJOFXPugUNczqSznVhP4DRTFK1y4xLbv2OVWP7t2rdqVH65X0HDln5k9BFKBAEI9RivoP3f+tJlOSMv6IBGtt/H/++cXzg1GE0+CQUJbHYw6LqWVCNamY3V6+iyoYwUJf3VC6rAkutUpSXSrg5S414uAVo3x1gmlkd+6OpYZM+cO8FtXpynLxrclq10HqrgqZ/2Gze4HJlQfpdOKMupcGxuf2IWLl9xa7bKw635XV5cT4rLi+85Rna7WX6+6dt2ll9VEXxH0gkCAAAQg4Akg1D2J0e3jFdvB0uJJqx/jk6uLjDYS3xoX5GKicUd9voIbQ/79VVbnuq773ljjhbruaQyR2NcqZxLL4SAxLbdOP7lT9zW+eKOQxLcMS3Jd0Rjkv1b7sUhlBTfVTeOpxlWVrXH3zp277pnk+rL735NPtQqNguJL2Guu1u0/7rgXglgvEKz6Em49zlOBAEI9RitotRdZCuTLJ9ErfzxZqPVDRZo8mjM5z1kX/Oe7eCzqvkilkUVcE0xVlgS1BLnEtwS8loBUxyhxLYGua7oXDrI06DOmloJUhxXsZOWDqNnu6oCUhzooTZzRijN6Dnf/5Glbs3a962TVIepzqOJp0wQj/QhTf3+/O1ddCRCAAAQ8AYS6JzG6fTxiO1xSPGmPnzjlvrBKVPuvp8pPxidNNHWrka1a4wSwLOx+LNReY5bGEfmoa6zwQeOSRLLGqnCQKN/+/c4By0DK6q35WfqlbH3hlbFJkz1l2ZegHZFJ3QAAIABJREFUVggKdf+FWvUN+8xPcv7ykyLjp75Gy7imMVurx3ihrr2e2a+gJpEfXI1G9/VSQYBAqhFAqMdoEXUu+g8va7OErvbBIGu3/O2etf71s8sSy8FfPNO94Bb03/P5aFKpPhnevPWbBdeg1X2V7ZezkhVbeQct7D4Pv1d8rROrjkZLQeozniwV/jl03/uhq8MNWj50z59r39LyzK5dr3abjv09xVN+BAhAAAKeAELdkxjdPh6xHS5ppGklzMNWZP0y6R937kZEq/p8PwbIkCTruvzcw+PRYOOD7klgSwz7TeOTgvJ8+PCRW5Nd45wfYzSOKY6+AEigRytT6fVFWvd8Ol3TscY5vUAoHwn34BLJiqO8Nf5qHCZAIJUJpJVQb2hqtd7ev/5zxwNVaZSWAAEIQAACiSWAUE8MT8a3xHAkFwhkGoG0Euodnd1OcMt6EM+mDlBpCRCAAAQgkFgCCPXE8GR8SwxHcoFAphFIK6GeafB5HghAAALpTgChnu4tSP0hAIFUJoBQT+XWoW4QgAAEUpwAQj3FG4jqQQACaU0AoZ7WzUflIQABCIwvAYT6+PKndAhAILMJINQzu315OghAAAJJJYBQTypeMocABLKcAEI9y/8AeHwIQAACoyGAUB8NPdJCAAIQGJwAQn1wPtyFAAQgAIFBCCDUB4HDLQhAAAKjJIBQHyVAkkMAAhDIZgII9WxufZ4dAhBINgGEerIJkz8EIACBDCaAUM/gxuXRIACBcSeAUB/3JqACEIAABNKXAEI9fduOmkMAAqlPAKGe+m1EDSEAAQikLAGEeso2DRWDAAQygABCPQMakUeAAAQgMF4EEOrjRZ5yIQCBbCCAUM+GVuYZIQABCCSJAEI9SWDJFgIQgICZIdT5M4AABCAAgRETQKiPGB0JIQABCAxJAKE+JCIiQAACEIBALAII9VhkuA4BCEBg9ATSSqh3dHZbQ1Or1TW0xLUpjdISIAABCEAgsQQQ6onlSW4QgAAEggTSSqhLcPf29gfrP6xjpVFaAgQgAAEIJJYAQj2xPMkNAhCAQJBAWgl1WdJHGkaTVmWePHXabfGU//79e2t/88Zev263P+7ctfsPHtqnT5/iySJq3L6+fvv1+Elra3se9b4utre32+PHDTHvx7px//4D27R5q/X09MSKwnUIQAACEQII9QgKDiAAAQgknABCfRCk7969s4rtO53gPXjoiGm7dq3ailZ8ay9fvhyQsvFJk82aM98mfJlj//hsgtu+ysm1KVOn27SCWbZm7Xo7fOSoSWQrVN+4GYnn44f3Ki9a6Ol5ZyWla6y+/nG02+5aVdV1y82bZo8e1blz5eXrkzN5iq3fuPlvaZ8/f2EFM+a4Z1C9g5ueTc9IgAAEIBAkgFAP0uAYAhCAQGIJINRj8Hz6tMXmzl9oO3buMVnGvVCXRbzywiXLy59uly5fjVjIJZolniWifaj9/bZ9v2O3Px2wl1APiuXwuS/PJ9J5WMgHzydO+maAcFc9Dx3+xeYXLrKurrf208+H3DMov3BZuvbsWavNmj3fvpj4tUnk6yuANgn9hYuW2oqVJdbdjZ+/bw/2EIDAXwQQ6vwlQAACEEgeAYR6FLZyG1mybIXduHkrIsTl+rJr9z7b9t12m79gsd29d99Wr11nL1+9cjlIqCuNBK23RMtyLQu7P9de4l0hLJbD59GEuq4phC3qEtSz5xYOEOqKpxeMt93d1tHR4cT2bzW1Lv2tWzU2bfosO3X6rDU3/+ks5blTCpywr6n93aYWzLQDP/xs+w/8aF9/k2/Hfj1hHz9+dGn5BwIQgECQAEI9SINjCEAAAoklgFAfhKfcVJ48abI9e/c7YTs5d6oTs9H8t6NZ1MPiO1iU7gUt4tGOvTBXOh3v3feDs3LL+i33m5qaWnfe0NjorOHeFUYvFXopkLtKXX29la3bGPkyoLzk0nPx4mWr2L7DCXUJ+hcvXlpnZ6dduVpli5cst88nfGWfff6le/GQwJfgJ0AAAhAIE0Coh4lwDgEIQCBxBBDqUVhqQqX8uyVWCxcssd1791tl5UVnoY4S3V3yQl0TRiWQJZTDFnVvTVeCsIgPn0ezqM8rXGTlW7bZhk3llpdfYCWr1rjzsvUbTRZxL9RlcQ+Kd/nZy1UnaNnXsQS9wsVLl53/unzY15ZtMFnVJd7l6iLhXrSyxH0ZEI/r1TdcGv6BAAQgIAIIdf4OIAABCCSPAEI9CluJ1Hv3HziRerXqmnN5mT5zjvNN17m2qmvX3coqPvmjunoncpVO7i+yeuuaJp/KNWX1mnVOnPv4YWEePo8m1L2FfTiuL0F3GH0VmDNvgXsmXW9tbbPFS4vs0uUrrjr6cnDn7r3IC0ZY0Ot80eLl9rSlZdCXFf9s7CEAgewhgFDPnrbmSSEAgbEngFCPwVx+3LJea5Ml21uzvUVbq6N4C7ay8ELbW9Ylpk+eOuMmceq+Jo4qjg86jubuErzmhbnS6FiWc70kaDKrJrrqms5PnznrVpYJ1ico1H161V0vIZevXLWVxaUDJr4G6+3j+/KV15KlRe6Fw9efPQQgAAERQKjzdwABCEAgeQQQ6kOwlfuHRGp19X9E9tu3b21ZUfEAoS5Rq5VVvOBVHLmRyL1EK7CEhfovR485H3FfvBf6/lz5eaGsa8EXh7DriwS43Fvkcy7LuIIX6nJjOXuu0vmfq87aNFlUrjHBoHrr5UN5h19O9IIwc/Y8hHoQGMcQgIAjgFDnDwECEIBA8ggg1Adhq0mjEqnLi4oHWJ8lgjXh0q/40tfXZ8UlqyMrumiy5s8HDztBrCUPJYC1lKOs2QofPnxwIv7CxUuR0ocS6pGI/171ZUVxqVt5xl/Xy4Dq6q32qmP+tJluuUUt06iVX7Zu227/988vnBtMU3OzT+r2EureZUdpNXHVT16VqJfri64TIAABCAQJINSDNDiGAAQgkFgCCPUoPDs6Om3Hzt02KSfXWaklvBW0PKP8tbX6i9YW9+uKy5VEwv3hozo38XLipMnu1z21zKMEdGPjEyf25ecugex9xtva2iKle6H+59OntmVrheVPnWGyukcLynP79zsjP2CkOmkyqSaYKr2CVnspmDHbLcG4fsNmNxn0u4odJku/Jo/mTM5zy0xKoCtgUXcY+AcCEIiTAEI9TmBEhwAEIBAHAYR6FFhv3nS4NcS96PVRtOa4fMIltP0vjOqeLO+PHzc44S5XEy/sfTrtJa5lmZa4f9baOmCNdt1/9eq1E/r6cSKtrCIXFm+BD+bjj7WuueopK7ffgnVSeYrT1dVlJ06ccnufVnt9BdCzqC4Kvlxdi7bJ9UZpCBCAAASCBBDqQRocQwACEEgsgbQS6g1Nrdbb2x83AaVRWgIEIAABCCSWAEI9sTzJDQIQgECQQFoJ9Y7Obie46xpaLJ5NIl1pCRCAAAQgkFgCCPXE8iQ3CEAAAkECaSXUgxXnGAIQgAAExp8AQn3824AaQAACmUsAoZ65bcuTQQACEEg6AYR60hFTAAQgkMUEEOpZ3Pg8OgQgAIHREkCoj5Yg6SEAAQjEJoBQj82GOxCAAAQgMAQBhPoQgLgNAQhAYBQEEOqjgEdSCEAAAtlOAKGe7X8BPD8EIJBMAgj1ZNIlbwhAAAIZTgChnuENzONBAALjSgChPq74KRwCEIBAehNAqKd3+1F7CEAgtQkg1FO7fagdBCAAgZQmgFBP6eahchCAQJoTQKineQNSfQhAAALjSQChPp70KRsCEMh0Agj1TG9hng8CEIBAEgkg1JMIl6whAIGsJ4BQz/o/AQBAAAIQGDkBhPrI2ZESAhCAwFAEEOpDEeI+BCAAAQjEJIBQj4mGGxCAAARGTQChPmqEZAABCEAgewkg1LO37XlyCEAg+QQQ6slnTAkQgAAEMpYAQj1jm5YHgwAEUoBAWgn1js5ua2hqtbqGlrg2pVFaAgQgAAEIJJYAQj2xPMkNAhCAQJBAWgl1Ce7e3v5g/Yd1rDRKS4AABCAAgcQSQKgnlie5QQACEAgSSCuhLkv6SEO8aZub/7SrVdcG3RTHh76+Pvvjzl3T3oe+vn779fhJa2t77i+5/adPn+zRozoX9/3799b+5o29ft3+t62n510k3dvubjt0+BfT3oeenh7bu++APX/+wl9iDwEIQGBMCSDUxxQ3hUEAAllGAKEeo8HDQr1s/UbTFhTvQaEuob1kaZET2xLmEugdHZ1WUrrG6usfDyhFYn7jpi22cPEyl9/k3HzLy59uU6b+Z/sqJ9cOHjoSSRfM/9atGivfss02l29zaZYXFbvz3Xv2DRDykcQcQAACEEgSAYR6ksCSLQQgAAEzQ6hH+TN486bDie5Fi5e7vQS4F9E61ubvKa5CUEhLmEug65r2sp43PmmyK1erIqV9/PjRjv16wsrWbbTChUus8sKlAS8BeinwQv3Vq9d2+sxZmz5zjtvX1P7uXhr27N3v0pw8ddoWLFrqjoMW/UhhHEAAAhBIEgGEepLAki0EIAABhHr0vwEvuk+fOecs1YePHLUDP/xku3bvM1mtZc3WPW9BDwrpc+crTUK6uGS13bv/wGbMmmsTvpxkEydNtvUbN7sC29vbra6+3uQCI1FfMGOObdhU7vJV3trmFS6KCPWGhkYnzGV5l4DX+d2792xlcanJPUZC/fsdu11+0Z+IqxCAAASSQwChnhyu5AoBCEBABLCoR/k78P7gFy9edqJZlm0J81+Pn3BiXUK6qup6xCc9KKQlnotWfGufT/jKphbMtPxpM+3+g4dWfeNmRKjLZWbW7Pm2c9ceJ+aHEuqqon95aGl5ZmvLNjhXmUk5uW6vsnImT3FWf4l2AgQgAIGxIoBQHyvSlAMBCGQjAYT6EK2uCZvfVeywxUuWu03HuhYOXkhLlFds32kriksjri+ymgeFutJ2db21HTv32IMHD+3s2fPOLUauMSdPnbGLly47N5agD/zLV69sxsy5TqR3d3e7iajbd+yypubmcFU4hwAEIDBmBBDqY4aagiAAgSwkgFCP0ujyH5dPuVxVvsmbapWVF23/gR/t4aM6J6J1TfcUR3EVvFDXPuyjrvOqa9etYvuOSGkfPnwwucBIqMuPXS4s2vzk05cvXzo3G/nAy/XmL6t5nhP0ssSvWl1mk77Oc64w3l1Ge1n3CRCAAATGigBCfaxIUw4EIJCNBBDqUVpd7iOFC5Y4S/fzFy+cCK+uvulWWZFlu7W1zYlnTe68fOWqy2Ewob56zTr77PMv7ey5ykhp8mvXhFSl96u+zJw9z1nN5xcusq+/yXeuNpocKgu+rOvyiVfZN27ecivG+MmkPx88bEp7vvKCKV8CBCAAgbEigFAfK9KUAwEIZCMBhHqMVtca6LJkB63VOt6wsdxyJueZxLfi+CChLoG9ddt2+/GngwNWfZFFXeH+/QfOCq/j2t9vW8mqNc5HPWhR11KLR48dd64tmozq3WyCLwLPnrXatIJZ7sVBFvRlRcVuQqmvC3sIQAACY0UAoT5WpCkHAhDIRgII9UFaXcsqLlm2wo78csw0iVOiWOf64aHgMohyiZFYzp1S4O7V1NRa8berTL7k8kXXjxopyF1GLjAKcoPRWuveTUbx7ty5axLquqYVYbQSjAS9QlCo67y/v9+548hSn5df4FaBURoCBCAAgbEkgFAfS9qUBQEIZBsBhPoQLa5fDdUa5xLi8hPXiithP/CnT1uc/7r3V5d7jFxRJudOjay/LhGfmzfNmpqa3S+RanLqkydNTrhP+DLHJk76xlnjS1etdSvCyGKvFWPk8qLy5JOuPOX2oiUatcrL/AWL3coz8nPXsdZj51dKh2hQbkMAAgklgFBPKE4ygwAEIDCAAEJ9AI7BT+Tqcr36xoAfLoqVQlZ0iXxZwv3mXWV0T77mmlAqn3KJcS/yFcfH1zKRCrK2q1y5vEiIa3UY5R0MsqY3NDY6K37wOscQgAAEkkkAoZ5MuuQNAQhkO4G0EuoNTa3W2/sfv/DhNp7SKC0BAhCAAAQSSwChnlie5AYBCEAgSCCthHpHZ7cT3HUNLRbPJpGutAQIQAACEEgsAYR6YnmSGwQgAIEggbQS6sGKcwwBCEAAAuNPAKE+/m1ADSAAgcwlgFDP3LblySAAAQgknQBCPemIKQACEMhiAgj1LG58Hh0CEIDAaAkg1EdLkPQQgAAEYhNAqMdmwx0IQAACEBiCAEJ9CEDchgAEIDAKAgj1UcAjKQQgAIFsJ4BQz/a/AJ4fAhBIJgGEejLpkjcEIACBDCeAUM/wBubxIACBcSWAUB9X/BQOAQhAIL0JINTTu/2oPQQgkNoEEOqp3T7UDgIQgEBKE0Cop3TzUDkIQCDNCSDU07wBqT4EIACB8SSAUB9P+pQNAQhkOgGEeqa3MM8HAQhAIIkEEOpJhEvWEIBA1hNAqGf9nwAAIAABCIycAEJ95OxICQEIQGAoAgj1oQhxHwIQgAAEYhJAqMdEww0IQAACoyaAUB81QjKAAAQgkL0EEOrZ2/Y8OQQgkHwCCPXkM6YECEAAAhlLAKGesU3Lg0EAAilAIK2EekdntzU0tVpdQ0tcm9IoLQECEIAABBJLAKGeWJ7kBgEIQCBIIK2EugR3b29/sP7DOlYapSVAAAIQgEBiCSDUE8uT3CAAAQgECaSVUJclfaQh3rRvu7vt0OFfTHsfenp6bO++A/b8+Qt/acC+obHRqqqu28ePH106pW9tbbNbv9W4awMix3nS19dvvx4/aW1tz+3Tp0/W2dlpr1+3D9h6et79Ldfa32/b9zt2R67rWNcIEIAABBJBAKGeCIrkAQEIQCA6AYR6dC5OAC9ZWuT2t27VWPmWbba5fJtNmTrdlhcVu/Pde/ZFhPz79+9tzdr1dunyFZejRHPJqjX24MFDF1eiXQJbQQI7f+oM+8dnEwbdFEdxFVx+pWusvv6xO16ybIVNzp3q6qM6fZWTawcPHXFxGxoaXZmqs+o6tWBm5FzHvv66r7gECEAAAiMlgFAfKTnSQQACEBiaAEI9CqNXr17b6TNnbfrMOW5fU/u7la3faHv27rerVdfs5KnTtmDRUnfc19fncqitvW2r16yzl69e2Y8/HXRW9+KS1VZTU2s3bt5y1nkJaVnoZXF/86bDiXBvFa+uvunKe1RXH7muOIorC3he/nT71xeTnDjfVL7VSv4t2h8+qjPVV3l7oa5z1VPbrt37bPGS5ZFzHeuav6+4BAhAAAIjJYBQHyk50kEAAhAYmgBCPQojWZklzCfn5ru9zu/evWcri0udNVtCXS4k3kL+7FmrzStcZBLbEukS6BLWn0/4ymbNnu+s2SdOnDJZ5r2wDxbb3d1ty4qK3QtA8Lo/lpiuvHDJ5s5f6MS4hLsX6us3brbqGzcHCHWl08vBjp27ram52f64czci/q9dqza9DLS/eWP6CkCAAAQgMBoCCPXR0CMtBCAAgcEJINRj8JGlW64vLS3PbG3ZBie8J+XkRgR4zuQpzu1Eol3CeVrBLFu0eLlzaZFwV/AiWm4rsrTf/uOOdXW9HVCixLJcUD77/Es7fOSoE9jRxHzY9WUooa485G4zc/Y8++nnQzbhy5yIm4xeIvQSIjcaAgQgAIHREECoj4YeaSEAAQgMTgChHoOPhPWMmXOdSJfFW8J3+45dzkIdLYkE96bNW51VXBb4woVLnDiWH7pEvdxoNmwqt8bGJ5HksshLTKscifWdu/ZY6eoytwUFvV4Ggq4vK1aWmHzUHz585OqnF4Wg68vjxw3ODefp0xbr6Oh0E1z10uBDUPT7a+whAAEIjIQAQn0k1EgDAQhAYHgEEOpROMmyLbeVnMl5duVqlRPQq1aX2aSv85wrjES13/xkTK32IvcVrfxy7Xq1PXnSZOcrL1jF9h2uhKpr192KMfI5V9D+54OHnUiXBd4Lbb0QbNlaYYuXFll7+38mkipO0Ypvnc+7Vn6Re40s9HLHuXP3XiS98tYLgFxfJO7liy7XGIS6w84/EIBAggkg1BMMlOwgAAEIBAgg1AMw/KGWYWxu/tO5vmh5RYnehYuXRSaTSmDLpURCXP7jEudyi9HKK7Kknzl7zmUlX/Dib1fZsV9P2PzCRZFlHd+9e+es67KkezcZL9SVUNb5HTv32Ow5hZE08imXe41eEN6+fev2ly5fta+/yXciXFZ3bcGgNLKoe6GusuRLnzulwPKnzbS2trZgdI4hAAEIxE0AoR43MhJAAAIQGDYBhHoMVN5HXXsJXIlkLc8oC/pgEz+V3YcPH1yucp+RVXvZ8pX2+vVr56oika512Ldsq4hYzBU5KNR1LrGulWe8C8zde/dt4aKlVrhgiZtYKqu5XhhUL28tv337D7duu9Lr/t59P7jJrV6oB1ebkfuLLPES8gQIQAACIyWAUB8pOdJBAAIQGJoAQj0Go6BQV5T+/n7bf+BHN+kzL7/ArQIjMawg0Ss/8YrtO0331m/YbBcuXnKWawl1CWafnyz10UJYqAfjSPhrSUb94NGjR3W2ddt2O3v2vM2Zt8COnzgVEep+8qrSNjU1Oyu+rOZeqAfz1A8oaZKsrP4ECEAAAiMlgFAfKTnSQQACEBiaAEI9CiNZzeWTLvcWub1oqUZNCJ2/YLFb6lA/YqRjubnIOl5ZedFZzU+eOuN+OfTADz9b6aq19ufTp+6+XFjk+lK2bmPE2h4udjChLv93pde66rK0awJqwYw5zrovS7tfjSY3b5pbycVPbD3yyzFXjJZnnDhpsrPu68eRtOH+Em4BziEAgZEQQKiPhBppIAABCAyPAEI9Cie5m1yvvuFcXiTENaFU/t7BIGu6fNO1IsxQQXlIxA/mZiJLeyxru+qjCaQKKvfixcsDzjs7O53FXj+m5EPjk6YBddM9WfWDm6zqBAhAAAKjIYBQHw090kIAAhAYnEBaCfWGplbr7Y1fXCqN0hIgAAEIQCCxBBDqieVJbhCAAASCBNJKqHd0djvBXdfQYvFsEulKS4AABCAAgcQSQKgnlie5QQACEAgSSCuhHqw4xxCAAAQgMP4EEOrj3wbUAAIQyFwCCPXMbVueDAIQgEDSCSDUk46YAiAAgSwmgFDP4sbn0SEAAQiMlgBCfbQESQ8BCEAgNgGEemw23IEABCAAgSEIINSHAMRtCEAAAqMggFAfBTySQgACEMh2Agj1bP8L4PkhAIFkEkCoJ5MueUMAAhDIcAII9QxvYB4PAhAYVwII9XHFT+EQgAAE0psAQj2924/aQwACqU0AoZ7a7UPtIAABCKQ0AYR6SjcPlYMABNKcAEI9zRuQ6kMAAhAYTwII9fGkT9kQgECmE0CoZ3oL83wQgAAEkkgAoZ5EuGQNAQhkPQGEetb/CQAAAhCAwMgJINRHzo6UEIAABIYigFAfihD3IQABCEAgJgGEekw03IAABCAwagII9VEjJAMIQAAC2UsAoZ69bc+TQwACySeAUE8+Y0qAAAQgkLEEEOoZ27Q8GAQgkAIE0kqod3R2W0NTq9U1tMS1KY3SEiAAAQhAILEEEOqJ5UluEIAABIIE0kqoS3D39vYH6z+sY6VRWgIEIAABCCSWAEI9sTzJDQIQgECQQFoJdVnSRxpGkrahsdGqqq7bx48f7W13tx06/Iu1trbZrd9q3DVfF91/86bDXr9ud5viKtT+ftu2fbd9QFyfJrhvaGi0M2fPBS/FPD579rzdulUTqY8vK2YCbkAAAhBIIgGEehLhkjUEIJD1BBDqMf4E3r9/b2vWrrdLl6+4GD0976xk1Rp78OChlW/Z5kT7p0+f3D0J9GkFsyx3SoHlTJ5i6zdutu7ublu8ZLl9lZNrU6ZOd9v3O3ZHSguK+/OVF2z1mnURod/b22v7D/xoBw8dicTXQfubNzZ/wWJXB5W5ZGmRS+MjffjwwR+yhwAEIDAmBBDqY4KZQiAAgSwlgFCP0fC1tbedeH756pX9+NNBe/78hRWXrLaamlq7cfOWE+oS0rJoB0Vz9Y2btrZsgxPzEuqywD9/8cJWrS6zk6dOR0qTBX7R4uVOwEvcT/gyJyLoN27aYjNnz7O2tueR+DqovHDJVhSXWl9f34AydU91UnmqCwECEIDAWBFAqI8VacqBAASykQBCPUqrP3vWavMKF1l19U0n0iXQ8/Kn2+cTvrJZs+c7EX7ixCnnguJF8/zCRXb6zFnbtXufzZg513bv3W8bNpU7q7gEfdGKb01W+WhB4l5WeIX7Dx66sqquXR8Qtaury1nT/fXgy4FcbFQ/f29AQk4gAAEIJJEAQj2JcMkaAhDIegII9Sh/AhK+cmWRxTt/6gyTcFeQmJaoluCWpf32H3esq+uts6rv3rPPucZMnzkn4m/+4sVLl49E9J9Pn0ZKkk+63Gf8tryo2KYWzLT1GzbbxEnf2Ow5hZF7iqtw5Jdj9n///MKVr3MJdVnQjx47bl9/k49Ij9DlAAIQGEsCCPWxpE1ZEIBAthFAqMdocfmob9q81bmrSCwXLlzi3FP+8dkE54cuQS6LeWPjE+ei8uvxk3bv/gP7rmKHE++yon+TN9VNJj3ww8/uePv3O+3Vq9fW19fvhLbEtja5x2zZWmE5k/OcC4u/rr3iNjU1W8GMOc41Ri8KCrqnlwil0YsFAQIQgMB4EECojwd1yoQABLKFAEI9RktrtZdlRcWmlV+uXa+2J0+aTJM+K7bvcCnkZrJ33wG3okt9/WMrKV1jf9y5a3PnL3QCf9fuvS6NF91Kf+58pRPYwSKbmpudS8vCRUud4NcEVYn/EydPm5+sevrMOfvl6DFncZdQb29vt29LVjuRrvoRIAABCIwXAYT6eJGnXAhAIBsIINSjtLLE76ScXLdiiyzpfunER3X1VvztKjv26wmTT7ommCoEhfqm8q1uqcafDx4esOKLJot6a7gEuAS6xLb83k+dPuus8BLy06bPssm5U03ivL9/4Jrxcr3ZVvG9E+hOxiUOAAAgAElEQVRKqzroRcAHrRbjxb2/xh4CEIBAMgkg1JNJl7whAIFsJ4BQH8ZfgF/2UH7p8jdftnylvX792h4+fGTv3r0bINTl+qIg1xdtPnj/dp0fPnLUifh9+38wWdLz8gts4qTJf7nSPGlyVnrlL7eXYFAeEvD1jxucC01weUYJ9LL1GyMvA8F0HEMAAhBIFgGEerLIki8EIAABM4R6lL8CTRaV33fF9p1ORGuS54WLl9w66RLqe/f94CzZEsrNzX/anbv3nHjXDyJpVZgNG8tN/uixhLrWUNemcrTc4pWrVX/7USSJcrm7BENQ7MuSPntuoXtJUJyenh5bWVxqsvoTIAABCIwVAYT6WJGmHAhAIBsJINSjtHpl5UUnvE+eOuP8xjUZtHTVWrdyi9xdtCqL3E7K1m00Wdv1Q0aaXCohrWUb5QozmOuLL1IWcy39OGfegsgqL1oJRm4tk77Ocz9s5ONqHxTqSqsfYNLkVr8tXLzMtIwjAQIQgMBYEUCojxVpyoEABLKRAEJ9BK0usS4R39HROYLUA5NIcGsS6tWqa5FNk1f1Y0dhf3P5yvvlGn0u/geXtCdAAAIQGGsCCPWxJk55EIBANhFIK6He0NRqvb0D/baH01hKo7QECEAAAhBILAGEemJ5khsEIACBIIG0Euodnd1OcNc1tFg8m0S60hIgAAEIQCCxBBDqieVJbhCAAASCBNJKqAcrzjEEIAABCIw/AYT6+LcBNYAABDKXAEI9c9uWJ4MABCCQdAII9aQjpgAIQCCLCSDUs7jxeXQIQAACoyWAUB8tQdJDAAIQiE0AoR6bDXcgAAEIQGAIAgj1IQBxGwIQgMAoCCDURwGPpBCAAASynQBCPdv/Anh+CEAgmQQQ6smkS94QgAAEMpwAQj3DG5jHgwAExpUAQn1c8VM4BCAAgfQmgFBP7/aj9hCAQGoTQKindvtQOwhAAAIpTQChntLNQ+UgAIE0J4BQT/MGpPoQgAAExpMAQn086VM2BCCQ6QQQ6pnewjwfBCAAgSQSQKgnES5ZQwACWU8AoZ71fwIAgAAEIDByAgj1kbMjJQQgAIGhCCDUhyLEfQhAAAIQiEkAoR4TDTcgAAEIjJoAQn3UCMkAAhCAQPYSQKhnb9vz5BCAQPIJINSTz5gSIAABCEAAAhCAAAQgEDeBtBLqHZ3d1tDUanUNLXFtSqO0BAhAAAIQgAAEIAABCKQLgbQS6hLcvb39cbNVGqUlQAACEIAABCAAAQhAIF0IpJVQlyV9pCHetG+7u+3Q4V9Mex96enps774D9vz5C38psv/w4YO719TcHLmmgzdvOmxt2Qa3H3AjcNLX12+/Hj9pbW3PA1f/c/jx40eX/vXrdtPW0/PO1cuf+72u+6Byu7re+tMB+4aGRjtz9tyAa+GTW7dqTBsBAhCAAAQgAAEIQGB8CCDUY3CX+F2ytMgJYwnW8i3bbHP5NpsydbotLyp257v37IsI+bt379nESd9Y7pQCW7R4eUSYB/OJUZQT3iWla6y+/nHUKMpjWsEsl3fO5Cl28NARW79xs+lY9dH2VU6uu64MPn365F4ylhUVW3fgRcNnXn3jpkvvz6PtVYY2AgQgAAEIQAACEIDA+BBAqEfh/urVazt95qxNnznH7Wtqf7ey9Rttz979drXqmp08ddoWLFrqjvv6+pwYXllcalXXrlt19U0rXbXW2tvbnSVdwv3zCV85kS3Lem9vrytRIvgfn02IuUn0e+EeFPuqw4WLl5zQluD2ISys379/714myrd85wS3XjT8pheNqQUz3bms69FCOL9ocbgGAQhAAAIQgAAEIJA8Agj1KGwlXiXMJ+fmu73OZTGXGJd7iYT69zt2O8u1kh/79YT964tJlpf/l2Vb1m25zSiPmppaJ+q117l3TwkKYV0LWtQlzGfPLfybUG9u/tO9BLS2tjmhfr7ygrP4K/7efT/8zQLe0dFhT5+22O3bf9jlK1fdi4VeNHbt3meLlyx353opaXzSZLPmzI9Y572FXs/hLfbaK47iEiAAAQhAAAIQgAAEkk8AoR6Dsbdit7Q8c5ZxifBJOblOjMtC7t1OJNrfvn1rZes2Wv3jBieYZemWL7vcU3RNLjTa6zwo1CWuVc6zZ61WtOJbJ+p13tDYaLNmz/+bUJfIXrd+k8laPpjri3fVqdi+0/m919XXO4Hv3WDCri/Kr/3Nm4joVx1Wr1nnBL2O/aY4ikuAAAQgAAEIQAACEEg+AYR6DMYvX72yGTPnOpEugSsXl+07dll4sqiSS3zL2l6yao2zOsu1ZDhCfV7hIud+smFTueXlF7j0ck+R5V0uM2HXl4eP6pwlvKmp2Qn1WK4vsrxXXrhkhQuXuDzks66Xgi3bKkyTXsNCPYxAz6OXi6KVJe65w/c5hwAEIAABCEAAAhBIPgGEehTGh48cdX7lOZPz7MrVKtu5a4+tWl1mk77OcyLa+3prL7cYCVvv5iIrtlxS9u3/YUgfdbm/KCj9cFxfZNmWj/rJU2cGFerR8uzq6rL1Gzbb/2/vzr+iPNI2jv+rmSTjZHEUBfcNFRQUcY0banDf9yTuC664jriios0iCIrIIorr/Z6rMtWn6XQbSE3NeR/nW+c8dtP9VHXz6fxw9Z37KZ60tv5pUFebj74ojJ84xbX85CDiIQQQQAABBBBAAIHIAgT1HMDahlFVaVWV1Q9+9dp1m1UyN30x6d59B2zSlOkukKvHW0FbQV7BWxeSqgfch3CFa63T2NhkDxsepV9Nzyvcq51F1e9pM2a5OfpZF7Jql5fsirrWUjV8VdVaF9SzL0b1r6kXyQ7/6Rc2cxe9qnUm19D/PZhbNt9V4PWFI9/OMbnm8hgCCCCAAAIIIIDAf06AoJ7H0gds3aqHXMFZ2zOqgq7wqt50P9S7rSCvSny+oO4vJlULjYbvI1dVPrv1RY+pMl+9fqPduXvP9Ygr7O/ctcddmKpArqCdr/VF66tvft78yvSXA7W8rFlb7S4OHfHdyPQXCf876NbvFKOg7tt9KioXu/YcetMzpbiPAAIIIIAAAgjEFyCo5zHODOo65d27d7Zj5277+tvvXD+52kPU+62h6ru2XtSFp+oFV4DevWefu0BTF4ZOnT7T7Qyj/dWbcuyaour3vIqFdvdeffrdaG1V3LWWfy+qtJ89e97evHnz2aDuA/foMUWmQxV7/VEl/fEmrdXb25t+7/4Ftaa+MKgvP/MPOmmbSe0Qs6Bysdty0p/PLQIIIIAAAggggEBcAYJ6Dl9VzdXKovYWtb0oMGuXlxkzS+z2nbt2//4Dd18XayrUal9z9Y6rWn7qdI37g0iao+0MtRe7qt+qjq9avdb1l2e/pEL5+g2b3B8t8tshqkdcF5iqp9wHdd2qHUZ7rGe3vfifVW1XtV+7yKgqrotfKxYsMlXRdfj1davf6Zdff3NtOQroqqQrmGcP/YXTxUt/sn+OLrQ7d+5mP83PCCCAAAIIIIAAAhEECOo5UBVML1+56lpeFMR1QanaWzKHwrWq5QrDCtPqZdfQXO1dnqtVpKen9w/r+DU/fvzo/pqpwrg/VAXXUCVc+7LrVutmb6Xoz9etqvNaK9frZ8/t7u5x5+p30O/r23L8e8q81Zr19ffd+pmPcx8BBBBAAAEEEEAgjkCignqqud0GBn4Pr8Ph0BzNZSCAAAIIIIAAAgggkBSBRAX1nt5+F7gbUm02nEMhXXMZCCCAAAIIIIAAAggkRSBRQT0pqLxPBBBAAAEEEEAAAQRCBQjqoYLMRwABBBBAAAEEEEAgggBBPQIqSyKAAAIIIIAAAgggECpAUA8VZD4CCCCAAAIIIIAAAhEECOoRUFkSAQQQQAABBBBAAIFQAYJ6qCDzEUAAAQQQQAABBBCIIEBQj4DKkggggAACCCCAAAIIhAoQ1EMFmY8AAggggAACCCCAQAQBgnoEVJZEAAEEEEAAAQQQQCBUgKAeKsh8BBBAAAEEEEAAAQQiCBDUI6CyJAIIIIAAAggggAACoQIE9VBB5iOAAAIIIIAAAgggEEGAoB4BlSURQAABBBBAAAEEEAgVIKiHCjIfAQQQQAABBBBAAIEIAokK6j29/ZZqbreGVNuwDs3RXAYCCCCAAAIIIIAAAkkRSFRQV+AeGHg3bFvN0VwGAggggAACCCCAAAJJEUhUUFcl/a+O4c59//69vezutq6ulzkPPadz/EilGu369RvuR90/cfKUfyrn7cOHDbZz155Ba+Q80cw+fvxo3d096ffxqv/3/ztQd/OWrft5vXs+31weRwABBBBAAAEEEEimAEE9z+f26NFj+/GfY6xg7HgbWzRh0KHH9JzO0ejre2Xbtu+yZctX2sXaS7Z5y3YrKS2zm7duW2HRRPvq6xHuKJ1Tbq9fv3FzDh0+auuqN7jw/bS93WaXlKXP8+d//+No9xr6sjBu/GT3XkaOGmvLV662/v5+9xo/jCxIv7cNG7fk+W14GAEEEEAAAQQQQCBpAgT1PJ+YQviUacUuSGefouCs54YS1BWqFc41x9/XzwrtPpArzOv5fEPP6XzdXrl6zZYuW2FVa9a5oN7e3mHPnj+3RYuX2dFjx/MtweMIIIAAAggggAACCRMgqOf5wIZTUdcSCtCZFXWF8sxwnnm/ru6WC941NWddeNd8VcOzK/e+Qq65M4pn2/ETJ121fuKkabZl2w5bsarK9u0/6I7yeQvS1fo8vxIPI4AAAggggAACCCRIgKCe58NSUJ88ZYalGhtd4FZY9oce03O+oq4l8gX18ROn2pjCCa5tZW7ZfBemOzs7rbGp2c3Zum2HewcK9mqf8a9xuuZMOsSrJ33L1u1WuWiJTZg0Nd3//vx5p2uJ0fpPWlvz/CY8jAACCCCAAAIIIJBEAYJ6nk9NIVx94apiq+8889Bjei47qE8vnu1aUsrKK1zIVuj27S6Z99Wiouq5+s3VY67+dIV4Vcf9UPDXXI2OjmemnvZ79fft5+qNride544eU+QuJt25a6+7v37DJnvxossvwS0CCCCAAAIIIIBAggUI6nk+PIXj6vWbXPBWP7hCuA/i+lnP6Rw/8lXU1U/+9Gm7q8yrNUb96b5n/bdDR1wVXTu66Dnfs+5vfVDXF4LKhUvs9p27Nm3GLFu1eq1t3rLNmpqa0xV43T91usb97N8TtwgggAACCCCAAALJFSCoD/Gz873guU7Xtoyqovsgr/tF4yfZjp27bVRB4R9aX/waantRJV07uOii0F2797rtGj99+mSqkl+9dt2dmhnUV1WtdVs17t13wFXjfV/7iO9GulYavza3CCCAAAIIIIAAAskWIKjn+PxUHfdV7T+71bktLU9ca8yBg7+6qrYuAr1wsdbtwrK6ap0peGe2vugl+/r6XLgvnlnqqvbqN586fabpQtOOjg53X1VyjcygrtYXjewvDqq+670wEEAAAQQQQAABBL4MAYL6ED/H7GCcPU1/wGhWyVxrbGyyueUVLkirPUbzNDKDuoL7/gO/2JKly62t7akL6j09PXby5Gl3oagq8aqcf/jwwc29c/eeq7xrji5iXbGyytSP7tfWSQR1R8U/CCCAAAIIIIDAFyNAUB/iR/m5oF5ff9+0u4vCuoZC96bNW90OLepPV6V93vxKV0EfGBiw2trL7mLS5uYWd77Wzle5V5VcFXrt9qIwfuTIMVdhp/VliB8cpyGAAAIIIIAAAgkVIKgP8YNTH7qOXEM95tpuMXNoC0bt0qKh1hiFeF1EqqHnHj9Oufv6x19cqqp79vH27bv0edxBAAEEEEAAAQQQ+N8RSFRQTzW328DA8IOr5mguAwEEEEAAAQQQQACBpAgkKqj39Pa7wN2QarPhHArpmstAAAEEEEAAAQQQQCApAokK6klB5X0igAACCCCAAAIIIBAqQFAPFWQ+AggggAACCCCAAAIRBAjqEVBZEgEEEEAAAQQQQACBUAGCeqgg8xFAAAEEEEAAAQQQiCBAUI+AypIIIIAAAggggAACCIQKENRDBZmPAAIIIIAAAggggEAEAYJ6BFSWRAABBBBAAAEEEEAgVICgHirIfAQQQAABBBBAAAEEIggQ1COgsiQCCCCAAAIIIIAAAqECBPVQQeYjgAACCCCAAAIIIBBBgKAeAZUlEUAAAQQQQAABBBAIFSCohwoyHwEEEEAAAQQQQACBCAIE9QioLIkAAggggAACCCCAQKgAQT1UkPkIIIAAAggggAACCEQQSFRQ7+ntt1RzuzWk2oZ1aI7mMhBAAAEEEEAAAQQQSIpAooK6AvfAwLth22qO5jIQQAABBBBAAAEEEEiKQKKCuirpf3WEzB3ua75//95edndbV9dLd7S2tdnVa9etr+9VeqmHDxts5649pnP/bHz8+NG6u3vS673q//3/DtTdvGXrfl5vep6BAAIIIIAAAggg8GUJENRzfJ6NTc02eeoMG1s0wR0jvhtpP4wssFEFRfbN37+3grHj088pLGvU1JxNP6Z5Or+waKKtWr3Wqtassx07d9uLF13pVzt0+Kitq97gwvfT9nabXVJmX309YtDx/Y+j7dGjx+6cceMnu9cdOWqsLV+52vr7+62ktMy9jn+fGzZuSa/PHQQQQAABBBBAAIFkCxDU83x+9fX3bfOW7a7irWC8b/9BF5qnTCt2wbm29rLt2r3XVbNbWp7YxdpLg45ly1eajuzHde7r12+sdE55OpQr0Kv6nm/oOZ2v2ytXr9nSZStc+FdQb2/vsGfPn9uixcvs6LHj+ZbgcQQQQAABBBBAAIGECRDU83xgqljPLa+w/Qd+seUrBgf1u3fv2aySuab2FY3hBvW6ulsueKsKry8BGqqG+8q4v/UVcgX0GcWz7fiJk+7Lw8RJ02zLth22YlWV+wKhLxHl8xa4LwBuMf5BAAEEEEAAAQQQSLwAQf0zH+GzZ8/t5KkaV8HOrKifPXfebtTdHDRTLSqjCgptTOHv7TJqfdGh0K3H9JzO0ejs7DS116g6vnXbDveYAvu27btc1VzB/HTNmXSIV0/6lq3brXLREpswaaqdOHnKzXn+vNPUEqP1n7S2usf4BwEEEEAAAQQQQODLECCo5/kcFaLVm+6r2/lufY+6QnjxrFKrOXPOtbtktr7oMT3ng7paVLSe+s0V5tWfPrdsvquO+7ej1/fV9o6OZ6ae9nv19+3n6o3uolR9cRg9pshdTLpz1153f/2GTYP64P1a3CKAAAIIIIAAAggkT4CgnuczywzKeU4Z9PBwgrp61FU1/+3QEVdF144uCvbZF5P6oK61Kxcusdt37tq0GbPcBaqbt2yzpqbmdAVe90+drnE/D3pj/IAAAggggAACCCCQSAGCep6P7a8E9aG2vviXVNuLKunqh9dFobo4Vds1fvr0yVQl15aOGplBfVXVWrdV4959B9KtNarOq/qv98xAAAEEEEAAAQQQ+DIECOp5PsczZ8+ZQvFQh6+Sq1KuQ/3mmT3nekzn+NHX12dl5RVWPLPU7eCifvOp02eaLjTt6Ohw91Ul18gM6mp90VDriw4/VH0nqHsNbhFAAAEEEEAAgeQLENRzfIYfPnxwF5AqrA91XL9+wwVu7ZmuY3rxbHf4n3WrczRUMdduMkuWLre2tqfu/J6eHjt58rS7UFR7rutLgt6Hxp2791zlXXMmT5lhK1ZWmfrRCeqOh38QQAABBBBAAIEvUoCgnuNjffCwwWbMLDFVuYcyUqnGQSE9X1DX4zpXe7CrXaW5ucUtr8Cd3Z/uf1aVXNs0arcXVc2PHDnmKuy0vgzlk+EcBBBAAAEEEEAguQIE9RyfXXNLi9thJcdTOR96+/Zd+qJO3/qS71bnanvGx49T6bWy22Yy5+p8BgIIIIAAAggggMD/nkCignqqud0GBoYfXDVHcxkIIIAAAggggAACCCRFIFFBvae33wXuhlSbDedQSNdcBgIIIIAAAggggAACSRFIVFBPCirvEwEEEEAAAQQQQACBUAGCeqgg8xFAAAEEEEAAAQQQiCBAUI+AypIIIIAAAggggAACCIQKENRDBZmPAAIIIIAAAggggEAEAYJ6BFSWRAABBBBAAAEEEEAgVICgHirIfAQQQAABBBBAAAEEIggQ1COgsiQCCCCAAAIIIIAAAqECBPVQQeYjgAACCCCAAAIIIBBBgKAeAZUlEUAAAQQQQAABBBAIFSCohwoyHwEEEEAAAQQQQACBCAIE9QioLIkAAggggAACCCCAQKgAQT1UkPkIIIAAAggggAACCEQQIKhHQGVJBBBAAAEEEEAAAQRCBQjqoYLMRwABBBBAAAEEEEAggkCignpPb7+lmtutIdU2rENzNJeBAAIIIIAAAggggEBSBBIV1BW4BwbeDdtWczSXgQACCCCAAAIIIIBAUgQSFdRVSf+rY7hzW1qe2MXaS589dE7mSDU2Wm3tZfv48aO96u+3/Qd+sfb2Drv+rxvuscxzdf90zRlrePTIPfzp0yfbum2H3ai7mX1a+med71/zwcMGO3f+Yvq5od5JpRrtxMlTfzj97dt37nG9b73/7u4e6+p6Oeh4/frNH+bxAAIIIIAAAggggEAcAYJ6HtfsoL5s+UrTkRnefWjWEu/fv7clS5fbufMX3IoKtZWLltj9+w+sas06F9oVxv3o6OiwuWXz7fnzTvfQo0ePbfSYIlu6bIU7f8vW7S7s+/Nfdndb5cIl6fP37N1vI0eNtbFFE9yh+3fv1bvT627eSj+u59dv3Gy9vb0udCvsL17yk7uvNfW+NfR+l69cnQ7mk6ZMd7+v3ruO6cWzbd/+g/7tcIsAAggggAACCCAQWYCgngNY1eTSOeU2u6TM3eq+D8S6n/mcztWoq7vlAnDnixe2e88+e/bsuVVULrYbN+rs6rXrLqgr6KpircC+Y+duO3rsuN2rv28XLtTawsXL7NTpMy4o15w550J8ZgX70OGjLijr3F9/O2zLV6x2P+uLw9mz56183gJXvdd7UXX8yZNWKyuvsIcPG1y415eCgrHjXbgf8d1IG1M4wUYVFJq+ILx40WV6Tf2+x0+ctJu3brvfURV1P/TeCepeg1sEEEAAAQQQQCC+AEE9h7ECqsL48ROnXDX5wMFfbeeuPbZ5y3ZTpVsVZj2nc3Tu06ftruJ85co1F9IV0BWEvx3xg02eMsOdf+TIMbt+/Ya9ffvW6u8/cMH60eOUuy2fX2mLFi+zZ8+fm9pnVL3WWj6oNzY22azZc9y8igWLrL7+vvsC4Kv7Ctfz5lfaq1ev0r+NArgq8Fojs1p+5eo1VznXe1aQV1U9O6jfvnPXhXb/5cTf6osFAwEEEEAAAQQQQOC/I0BQz+Hs+8tVqVYoVyVZwfzQ4SMurOsx9aIr0Cp4q9Vk3PjJLtwWFk10wV3LqpVEwVhBWZX2W7fvWF/fK7eOwq8q2+s3bLJLl6+4QL9iVZWNKRzvWmYUon0FWz3uEyZNtfETp7rz1criw7NuRxUU2d//8aP7cuDDtOYuXvqTXb5y1X0B8G0tPqirqj8wMJD+7TPDvCry2f3p+lntM5ntO+nJ3EEAAQQQQAABBBD4jwsQ1P+E9PXr1/Zz9UYrKS1zh+7rseyhXu9Vq9e6dhZdsFk8q9QF8a++HuHaTRS0FcRVHddQcFcYV2Vb1e/f133jquD6WYHaB3Wd39HxzOZVLHRtLLrYU6024yZMtvkVC13g1vNqidH7UJV84qRpbv1pM2a5LxSq/uu9ZB4K734ohM8tr7ApU4ttzdpq994zvwyoB15rKNAzEEAAAQQQQAABBOILENRzGCsINzY1u4q4LvCsqTnresq108rZc+fdRZ8KuTpH52qowq6gq9YVVcibmprdri7V6zf+/vyly7Zt+053vsK0qvLaFUaBW6F8VdVaF9rVa66+dl306YO6P3/vvgNWe+myzSqZa2vWVbv2GH0B0G4xk6fOsDt37rrXUlX9b9/8w62rLwBaX60zJXPK7V836lxVfF31Bjt67MS/zz9h3/z9exs5aoydv3DR/S76/VQ9V/Ve/ydAaxDUHRf/IIAAAggggAAC/xUBgnoOZgXd4pmldvLkadc2orYP9YyvrlrnKuHaclF96wrJCrYK5z+OLLAfRha4Srrf/vBhwyNTT/lvh47YjOLZ7gJTvZx61b/+9jvX5qI1FYILxowb1M6iarZvY1GFXRd+Koxv37HLBXpf5det2m4U9D98+OB+G13gumnz1kFBXReTKvyrb11fMOZk7DijVpeent70ri96Pwrqqp7rfF/hJ6jn+I+FhxBAAAEEEEAAgUgCBPU8sAqvCuOqfGceK1ZWucqztjjUObmGD8xqb9FFpQrJXV1d9uDBQ3vz5o2rqvteb91qZxYF7syhxzVf1fTMoQs/VbnXLi26iFQ7uWhLx5+WrzJV/P1QNV6BW+sePnLMFi5a6i421RaSI777Mf0lwJ+f2aPug7q2kNSXEVXx9UWFoO61uEUAAQQQQAABBOILENQ/Y6wAXTp3nh385Tdra3tq6j3Xz2pZ0UWkfijk6oLS6vWbXJVcWyeeOXvOhWgF9W3bd7mLMxV0tfe6KtraBUbValXh1V6ydt36QRdqqg9e1XhVs7XLy4aNW1xFXZV1tdZolxj1vN+6dduFcb1XtcRoW0gNBXX1wKtHXa+j7SBfvnzpLlTVa6qf3bft6PzMoK6fOzs7bUHlYtcuM37iFBf09RgDAQQQQAABBBBA4L8jQFD/E2ddmOn2NS+vcNstqnqtwJ451MOuqrl6vnVR585de12wfdLa6oKzLtBU68uyn1a69hS11Cg4a9cYBWSdp91iFOr9BZzayWXq9JnW19fngvqlS1dceNZ70YWi+lmVcoVptb1oqKVGwV3D/8Emtc/oolOFevXbqw1HVXlV2BXA9QVDlX7tEKNdZVRNV8VeO9JoO0p9IdGhLyf/HF3o/uCTewH+QQABBBBAAAEEEIgqQFAfBq9aXddyc8IAAAvcSURBVLTd4YWLtcOYZS6sK8SrDzzfUGDP3BIx86+GZs5RS4wq4WqvUdC/UXfTtdNknpN5X1V0be947fq/7Gl7e/oprXHn7j1rbWtzW0bq92ptbXP/50BfBvQFIXvoC4XWYyCAAAIIIIAAAgjEF0hUUE81t9vAQO6+8M9RaY7mMhBAAAEEEEAAAQQQSIpAooJ6T2+/C9wNqTYbzqGQrrkMBBBAAAEEEEAAAQSSIpCooJ4UVN4nAggggAACCCCAAAKhAgT1UEHmI4AAAggggAACCCAQQYCgHgGVJRFAAAEEEEAAAQQQCBUgqIcKMh8BBBBAAAEEEEAAgQgCBPUIqCyJAAIIIIAAAggggECoAEE9VJD5CCCAAAIIIIAAAghEECCoR0BlSQQQQAABBBBAAAEEQgUI6qGCzEcAAQQQQAABBBBAIIIAQT0CKksigAACCCCAAAIIIBAqQFAPFWQ+AggggAACCCCAAAIRBAjqEVBZEgEEEEAAAQQQQACBUAGCeqgg8xFAAAEEEEAAAQQQiCBAUI+AypIIIIAAAggggAACCIQKENRDBZmPAAIIIIAAAggggEAEgUQF9Z7efks1t1tDqm1Yh+ZoLgMBBBBAAAEEEEAAgaQIJCqoK3APDLwbtq3maC4DAQQQQAABBBBAAIGkCCQqqKuS/lfHX5k7MDBgGzZusZaWJ+mXffbsuVWt+dl6enrSj/k7J06eslSq0f/4p7dv3ryxvr5X7ry6ulum+QwEEEAAAQQQQAABBCRAUM/z38H79+/tZXe3HT5yzBYv+ck6OzvtaXu7zSmbb5u3bHfP6ZzMsXzlarty9Zp7SPe/+nrEoKN0Trm9fv0mPeXosRO2dNkK+/Dhg5unOfmG1s1eL9fP/vXzrcPjCCCAAAIIIIAAAskQIKjn+ZwePXpsowoKbUzhBBtbNMF+GFngDt3XY3pO52i8eNFlF2svWUlpmQvxt+/cdQE8MzTr3MqFS9JB/e3bt1Y+v9KmF8+2qjXr3G3R+Enuvn7Wcf36jfS701rZQX+4Ffz0YtxBAAEEEEAAAQQQ+H8vQFDP8xFlB+t9+w+aDg1VxRW6fVBXu8vqqnUu0JeVV9iBg7+6Kvzngvq/btTZxEnT7HTNGRfyly1f6YK+Ar8/MltucgX1zAp+nl+DhxFAAAEEEEAAAQQSKkBQz/PBKYR//+PovO0mes4HdS2hNhkF7737DtinT5/sc60v6n2vWLDIjh47nn51fQn4s9aX7Io6QT3Nxx0EEEAAAQQQQOCLEyCo5/lIh1NR1xLnzl+wv33zDxtVUGS1tZdd6M5XUdcFpLWXLtuFi7Xp6nmuivrlK1fTF5tqrSnTit2Rqzddj2UH+Ty/Gg8jgAACCCCAAAIIJECAoJ7nQ1JQH2qPulphFi5eZhMmTbVffztss0vKbNyEyekLS/USmcG/o+OZVa/flO5HX7Gqyr2WXk/3fY+6ztG5Ggrqc8vmm6rxfriK+pVrlmpstP5+9on3LtwigAACCCCAAAJfggBBPc+n6Hd96ep6aTq2bd/lDv+zWl38ri81Z87Zsp9Wpi8g7evrM1XIsyvf+Srezc0tNqZwvBWMGWcPHjbkfEeqwGe3xuhnVe83btpq8yoWEtZzyvEgAggggAACCCCQTAGCeo7PTReH+qq2v9XuLH6HFv+YbnXuvfr71tTUPKjdxVW7/71Vo14is6Ke+ZJqg9GWj+s3bLIjR465Pnft1Z499uzdb1u37Rj0sH8NfWHQe1lXvcE+fvw46Bx+QAABBBBAAAEEEEimAEE9x+fmt1v0u6/oVhVyHZmP6b7O9cMHZ/2ceV8/5wrqjY1NLphrn3a1rihwqzpeOG6S3bp1212Uqrl6btbsOXbm7DlX3fdVfc3TrjH6ua3tqT1+nEpv/+jfE7cIIIAAAggggAACyRQgqA/xc8vcnjHflMxwrvv5Wl86X7xwQf7bET/Yzl17TXuq+6GK+Nlz523kqDFWPLPUWlvbTFs5Tpla7Pras9fM/tlvIenX4xYBBBBAAAEEEEAgmQIE9SF+bvrjQ5l/gCjXtKH+ASJdfHro8FHr6OjItYx77PXr13byVI2rkDe3tNiNG3V5z+UJBBBAAAEEEEAAgS9PIFFBPdXcbgMD74b9KWiO5jIQQAABBBBAAAEEEEiKQKKCek9vvwvcDak2G86hkK65DAQQQAABBBBAAAEEkiKQqKCeFFTeJwIIIIAAAggggAACoQIE9VBB5iOAAAIIIIAAAgggEEGAoB4BlSURQAABBBBAAAEEEAgVIKiHCjIfAQQQQAABBBBAAIEIAgT1CKgsiQACCCCAAAIIIIBAqABBPVSQ+QgggAACCCCAAAIIRBAgqEdAZUkEEEAAAQQQQAABBEIFCOqhgsxHAAEEEEAAAQQQQCCCAEE9AipLIoAAAggggAACCCAQKkBQDxVkPgIIIIAAAggggAACEQQI6hFQWRIBBBBAAAEEEEAAgVABgnqoIPMRQAABBBBAAAEEEIggQFCPgMqSCCCAAAIIIIAAAgiEChDUQwWZjwACCCCAAAIIIIBABAGCegRUlkQAAQQQQAABBBBAIFSAoB4qyHwEEEAAAQQQQAABBCIIENQjoLIkAggggAACCCCAAAKhAgT1UEHmI4AAAggggAACCCAQQYCgHgGVJRFAAAEEEEAAAQQQCBUgqIcKMh8BBBBAAAEEEEAAgQgCBPUIqCyJAAIIIIAAAggggECoAEE9VJD5CCCAAAIIIIAAAghEECCoR0BlSQQQQAABBBBAAAEEQgUI6qGCzEcAAQQQQAABBBBAIIIAQT0CKksigAACCCCAAAIIIBAqQFAPFWQ+AggggAACCCCAAAIRBAjqEVBZEgEEEEAAAQQQQACBUAGCeqgg8xFAAAEEEEAAAQQQiCBAUI+AypIIIIAAAggggAACCIQKENRDBZmPAAIIIIAAAggggEAEAYJ6BFSWRAABBBBAAAEEEEAgVICgHirIfAQQQAABBBBAAAEEIggQ1COgsiQCCCCAAAIIIIAAAqECBPVQQeYjgAACCCCAAAIIIBBBgKAeAZUlEUAAAQQQQAABBBAIFSCohwoyHwEEEEAAAQQQQACBCAIE9QioLIkAAggggAACCCCAQKgAQT1UkPkIIIAAAggggAACCEQQIKhHQGVJBBBAAAEEEEAAAQRCBQjqoYLMRwABBBBAAAEEEEAgggBBPQIqSyKAAAIIIIAAAgggECpAUA8VZD4CCCCAAAIIIIAAAhEECOoRUFkSAQQQQAABBBBAAIFQAYJ6qCDzEUAAAQQQQAABBBCIIEBQj4DKkggggAACCCCAAAIIhAoQ1EMFmY8AAggggAACCCCAQAQBgnoEVJZEAAEEEEAAAQQQQCBUgKAeKsh8BBBAAAEEEEAAAQQiCBDUI6CyJAIIIIAAAggggAACoQIE9VBB5iOAAAIIIIAAAgggEEGAoB4BlSURQAABBBBAAAEEEAgVIKiHCjIfAQQQQAABBBBAAIEIAgT1CKgsiQACCCCAAAIIIIBAqABBPVSQ+QgggAACCCCAAAIIRBAgqEdAZUkEEEAAAQQQQAABBEIFCOqhgsxHAAEEEEAAAQQQQCCCAEE9AipLIoAAAggggAACCCAQKkBQDxVkPgIIIIAAAggggAACEQQI6hFQWRIBBBBAAAEEEEAAgVABgnqoIPMRQAABBBBAAAEEEIggQFCPgMqSCCCAAAIIIIAAAgiEChDUQwWZjwACCCCAAAIIIIBABAGCegRUlkQAAQQQQAABBBBAIFSAoB4qyHwEEEAAAQQQQAABBCIIENQjoLIkAggggAACCCCAAAKhAgT1UEHmI4AAAggggAACCCAQQYCgHgGVJRFAAAEEEEAAAQQQCBUgqIcKMh8BBBBAAAEEEEAAgQgCBPUIqCyJAAIIIIAAAggggECoAEE9VJD5CCCAAAIIIIAAAghEECCoR0BlSQQQQAABBBBAAAEEQgUI6qGCzEcAAQQQQAABBBBAIIIAQT0CKksigAACCCCAAAIIIBAqQFAPFWQ+AggggAACCCCAAAIRBP4PR/oMvtOn+rAAAAAASUVORK5CYII=;" vertex="1" parent="1">
          <mxGeometry x="20" y="820" width="326.12" height="240" as="geometry" />
        </mxCell>
      </root>
    </mxGraphModel>
  </diagram>
</mxfile>
